<svg xmlns="http://www.w3.org/2000/svg" viewBox="0 0 500 500"><g id="Land"><g id="Earth"><g id="Mountains"><path d="M34,275.91V150.52l82.91-68.38a9.79,9.79,0,0,1,11.24-.86l68.88,41,42.81-24.72a8.56,8.56,0,0,1,9.12.34l91.65,66.33V275.91Z" style="fill:#455a64"></path><path d="M212,123.6l13.45-4.79,17.74-22.32a8.55,8.55,0,0,0-3.4,1.1L197,122.31l25.9,14.95Z" style="fill:#37474f"></path><path d="M239.79,97.59,212.57,113.3a10.09,10.09,0,0,0,7.08.12c1.68-.62,3.16-1.69,4.8-2.42a6.09,6.09,0,0,1,5.18-.26c2.12,1.1,3,4,5.34,4.62,1.77.48,3.57-.62,4.92-1.86s2.61-2.71,4.37-3.24c2.81-.85,5.62,1,8.33,2.15a17.56,17.56,0,0,0,9.34,1.17,6.4,6.4,0,0,0,2.57-.85,4.39,4.39,0,0,0,1.68-2.3l-17.27-12.5a8,8,0,0,0-1-.61A8.58,8.58,0,0,0,239.79,97.59Z" style="fill:#f5f5f5"></path><path d="M241.83,96.75c-.25.07-.5.15-.74.24l-.32.12a9.85,9.85,0,0,0-1,.48h0L212.57,113.3a10.09,10.09,0,0,0,7.08.12c1.68-.62,3.16-1.69,4.8-2.42a6.09,6.09,0,0,1,5.18-.26,5.5,5.5,0,0,1,1.38,1.07l12.18-15.32h0a7.16,7.16,0,0,0-1,.18Z" style="fill:#e0e0e0"></path><path d="M94.78,109.05c6.42-1.33,12.37-5.66,18.88-4.85a19.13,19.13,0,0,1,5.3,1.72,43.25,43.25,0,0,0,4,1.66,14,14,0,0,0,9.91-.38,51.72,51.72,0,0,0,5.81-3.46,11.3,11.3,0,0,1,6.37-2c2.32.15,4.39,1.43,6.53,2.35a22.17,22.17,0,0,0,9.09,1.78,10.76,10.76,0,0,0,4-.58,13.34,13.34,0,0,0,2.14-1L128.1,81.28a9.79,9.79,0,0,0-11.24.86L84.7,108.68A21.88,21.88,0,0,0,94.78,109.05Z" style="fill:#f5f5f5"></path></g><path d="M465.81,272c0,119.32-96.5,216.05-215.81,216.05S34,391.34,34,272Z" style="fill:#b16668"></path><path d="M278.13,439.37q-21.21-1.46-42.33-4.1c-12.93-1.63-26-3.31-38.6-6.51a113.32,113.32,0,0,1-17.76-6A97.62,97.62,0,0,1,163,413.37a118.22,118.22,0,0,0-16.45-10.05c-5.5-2.62-11.29-5-15.76-9.25s-7.3-9.6-9.39-15.24A132.61,132.61,0,0,1,116.31,360c-.3-1.44-1.79-1-1.54.38,2,11.13,4.13,22.65,11.29,31.79,3.74,4.78,8.71,8.05,14.12,10.7,2.77,1.36,5.61,2.6,8.35,4A79.52,79.52,0,0,1,156.8,412c5.42,3.7,10.7,7.55,16.54,10.57,1.51.78,3,1.52,4.6,2.21-3.77-.83-7.54-1.67-11.29-2.6-8.83-2.19-17.73-4.4-26.36-7.28-9.12-3-18.1-8.78-23.55-16.82-1.87-2.75-3.27-5.81-5.29-8.45-2.27-3-5.25-5.37-7.88-8a22.35,22.35,0,0,1-5.91-10.7Q95.48,363,93.4,355.08c-.35-1.34-2.13-1.49-1.82.13.94,4.9,2.14,9.69,3.34,14.51.5,2,.43,4.06,1.26,6a19.45,19.45,0,0,0,4.18,6c3.17,3.21,7,5.8,9.59,9.49,2,2.88,3.18,6.26,4.85,9.34,2.24,4.12,5.53,5.89,9.15,8.5-4.23-1.65-8.43-3.38-12.58-5.25-3.88-1.74-7.79-3.53-10.67-6.77-2.66-3-4.63-6.53-7.45-9.41-5.12-5.24-11.82-9-16.11-15.07-2.47-3.48-3.62-7.53-4.48-11.67s-1.71-8.5-2.9-12.68a114.08,114.08,0,0,0-12.3-27.94c-.86-1.41-1.94.08-1.28,1.23a115.6,115.6,0,0,1,10.55,25c1.27,4.31,2.2,8.67,3,13.08.81,4.19,1.78,8.4,4,12.12,3.87,6.59,10.55,10.67,16,15.76,3,2.77,5.17,6,7.64,9.23a26.87,26.87,0,0,0,9.75,7.71c4.74,2.33,9.68,4.34,14.59,6.29,5.27,2.1,10.59,4.12,16,5.87,3.61,1.31,7.32,2.36,11,3.39,4.52,1.26,9.07,2.47,13.62,3.62,5.18,1.31,10.38,2.58,15.6,3.7,5.42,1.17,10.84,2.49,16.32,3.34a.61.61,0,0,0,.13,0c11.48,3.14,23.33,4.86,35.11,6.44q24.13,3.24,48.44,4.89A1.26,1.26,0,1,0,278.13,439.37Z" style="fill:#7CB88A"></path><path d="M278.13,439.37q-21.21-1.46-42.33-4.1c-12.93-1.63-26-3.31-38.6-6.51a113.32,113.32,0,0,1-17.76-6A97.62,97.62,0,0,1,163,413.37a118.22,118.22,0,0,0-16.45-10.05c-5.5-2.62-11.29-5-15.76-9.25s-7.3-9.6-9.39-15.24A132.61,132.61,0,0,1,116.31,360c-.3-1.44-1.79-1-1.54.38,2,11.13,4.13,22.65,11.29,31.79,3.74,4.78,8.71,8.05,14.12,10.7,2.77,1.36,5.61,2.6,8.35,4A79.52,79.52,0,0,1,156.8,412c5.42,3.7,10.7,7.55,16.54,10.57,1.51.78,3,1.52,4.6,2.21-3.77-.83-7.54-1.67-11.29-2.6-8.83-2.19-17.73-4.4-26.36-7.28-9.12-3-18.1-8.78-23.55-16.82-1.87-2.75-3.27-5.81-5.29-8.45-2.27-3-5.25-5.37-7.88-8a22.35,22.35,0,0,1-5.91-10.7Q95.48,363,93.4,355.08c-.35-1.34-2.13-1.49-1.82.13.94,4.9,2.14,9.69,3.34,14.51.5,2,.43,4.06,1.26,6a19.45,19.45,0,0,0,4.18,6c3.17,3.21,7,5.8,9.59,9.49,2,2.88,3.18,6.26,4.85,9.34,2.24,4.12,5.53,5.89,9.15,8.5-4.23-1.65-8.43-3.38-12.58-5.25-3.88-1.74-7.79-3.53-10.67-6.77-2.66-3-4.63-6.53-7.45-9.41-5.12-5.24-11.82-9-16.11-15.07-2.47-3.48-3.62-7.53-4.48-11.67s-1.71-8.5-2.9-12.68a114.08,114.08,0,0,0-12.3-27.94c-.86-1.41-1.94.08-1.28,1.23a115.6,115.6,0,0,1,10.55,25c1.27,4.31,2.2,8.67,3,13.08.81,4.19,1.78,8.4,4,12.12,3.87,6.59,10.55,10.67,16,15.76,3,2.77,5.17,6,7.64,9.23a26.87,26.87,0,0,0,9.75,7.71c4.74,2.33,9.68,4.34,14.59,6.29,5.27,2.1,10.59,4.12,16,5.87,3.61,1.31,7.32,2.36,11,3.39,4.52,1.26,9.07,2.47,13.62,3.62,5.18,1.31,10.38,2.58,15.6,3.7,5.42,1.17,10.84,2.49,16.32,3.34a.61.61,0,0,0,.13,0c11.48,3.14,23.33,4.86,35.11,6.44q24.13,3.24,48.44,4.89A1.26,1.26,0,1,0,278.13,439.37Z" style="fill:#fff;opacity:0.4"></path><path d="M270.5,272c-21.94,4.13-45.17,9.2-59.39,26.11A258.26,258.26,0,0,0,185.24,336c-4.59,8-8.87,16.14-13,24.26-1.9,3.78-3.8,7.8-3.59,12,.67,13.39,20.14,9.34,24.77,20.42,7.9,18.89,26.54,29.25,40.7,35.69,8.49,3.86,18,4.77,26.88,7.58,13.79,4.36,25.74,13.15,39.14,18.58,18.53,7.52,39,8.06,58.45,4.26A215.94,215.94,0,0,0,465.81,272Z" style="fill:#7CB88A"></path><path d="M270.5,272c-21.94,4.13-45.17,9.2-59.39,26.11A258.26,258.26,0,0,0,185.24,336c-4.59,8-8.87,16.14-13,24.26-1.9,3.78-3.8,7.8-3.59,12,.67,13.39,20.14,9.34,24.77,20.42,7.9,18.89,26.54,29.25,40.7,35.69,8.49,3.86,18,4.77,26.88,7.58,13.79,4.36,25.74,13.15,39.14,18.58,18.53,7.52,39,8.06,58.45,4.26A215.94,215.94,0,0,0,465.81,272Z" style="fill:#fff;opacity:0.4"></path><ellipse cx="249.88" cy="272.29" rx="215.93" ry="124.67" style="fill:#7CB88A"></ellipse><ellipse cx="249.88" cy="272.29" rx="215.93" ry="124.67" style="fill:#fff;opacity:0.45"></ellipse><g id="Lake"><path d="M402.57,360.45c49.51-28.59,69.93-67.6,61.3-104.8a43.51,43.51,0,0,0-21-5.18c-12.77,0-25.05,4.49-37.09,8.73s-24.49,8.4-37.24,7.8c-7.17-.34-14.27-2.19-21.43-1.79-18.57,1-32.39,15.51-48.79,22.4-17.88,7.5-37.47,2-55.11,8.81-7.28,2.83-13.95,7.46-21.64,8.78-17.5,3-34.8-4.59-52-6.53-18.56-2.09-36.2-5-53.92-11.63-3.66-1.36-7.39-2.9-10.17-5.64s-4.41-7-3-10.66a14.37,14.37,0,0,1,3.52-4.8c5.66-5.73,16.76-11.43,14.42-21.21-1-4.2-4.72-7.13-8.35-9.47s-7.58-4.65-9.59-8.47a6.13,6.13,0,0,1-.76-4.23c.63-2.46,3.27-3.75,5.66-4.6,9.42-3.37,19.36-4.85,29.09-7a106.27,106.27,0,0,0,14.31-4.12c3.91-1.47,7.5-2.23,9.25-6.5a11.36,11.36,0,0,1,1.24-2.52c1.58-2.14,4.54-2.57,7.18-2.91q6.72-.85,13.33-2.35c.44-.1,1-.3,1-.75a.85.85,0,0,0-.37-.66,4.47,4.47,0,0,0-3.15-.63q-7.22.38-14.4,1.23c-3.62.43-9.52.61-11.65,4.07a34.75,34.75,0,0,1-2,3.46c-1.83,2.35-5,3.11-7.92,3.71-10.75,2.2-21.53,4.24-32.19,6.82-5.65,1.36-11.35,2.92-16.28,6a16.9,16.9,0,0,0-5.12,4.62A9.18,9.18,0,0,0,88,227c.42,2.64,2.22,4.85,4.27,6.57s4.37,3.05,6.4,4.79c5.24,4.49,2.85,8.68-1.59,12.86-4.27,4-9.37,7-14,10.52s-9,7.85-10.94,13.38c-2.1,6.11-.85,13,2.3,18.66s8,10.13,13.28,13.89c13.81,9.86,30.29,15.05,46.09,21.24q11.79,4.62,23.22,10.06c9.91,4.71,20.23,10.34,26.83,19.4s6.34,22.51,9.23,33.07c.12.42.26.83.39,1.25C265.63,403.89,345.92,393.15,402.57,360.45Z" style="fill:#7CB88A"></path><path d="M402.57,360.45c49.51-28.59,69.93-67.6,61.3-104.8a43.51,43.51,0,0,0-21-5.18c-12.77,0-25.05,4.49-37.09,8.73s-24.49,8.4-37.24,7.8c-7.17-.34-14.27-2.19-21.43-1.79-18.57,1-32.39,15.51-48.79,22.4-17.88,7.5-37.47,2-55.11,8.81-7.28,2.83-13.95,7.46-21.64,8.78-17.5,3-34.8-4.59-52-6.53-18.56-2.09-36.2-5-53.92-11.63-3.66-1.36-7.39-2.9-10.17-5.64s-4.41-7-3-10.66a14.37,14.37,0,0,1,3.52-4.8c5.66-5.73,16.76-11.43,14.42-21.21-1-4.2-4.72-7.13-8.35-9.47s-7.58-4.65-9.59-8.47a6.13,6.13,0,0,1-.76-4.23c.63-2.46,3.27-3.75,5.66-4.6,9.42-3.37,19.36-4.85,29.09-7a106.27,106.27,0,0,0,14.31-4.12c3.91-1.47,7.5-2.23,9.25-6.5a11.36,11.36,0,0,1,1.24-2.52c1.58-2.14,4.54-2.57,7.18-2.91q6.72-.85,13.33-2.35c.44-.1,1-.3,1-.75a.85.85,0,0,0-.37-.66,4.47,4.47,0,0,0-3.15-.63q-7.22.38-14.4,1.23c-3.62.43-9.52.61-11.65,4.07a34.75,34.75,0,0,1-2,3.46c-1.83,2.35-5,3.11-7.92,3.71-10.75,2.2-21.53,4.24-32.19,6.82-5.65,1.36-11.35,2.92-16.28,6a16.9,16.9,0,0,0-5.12,4.62A9.18,9.18,0,0,0,88,227c.42,2.64,2.22,4.85,4.27,6.57s4.37,3.05,6.4,4.79c5.24,4.49,2.85,8.68-1.59,12.86-4.27,4-9.37,7-14,10.52s-9,7.85-10.94,13.38c-2.1,6.11-.85,13,2.3,18.66s8,10.13,13.28,13.89c13.81,9.86,30.29,15.05,46.09,21.24q11.79,4.62,23.22,10.06c9.91,4.71,20.23,10.34,26.83,19.4s6.34,22.51,9.23,33.07c.12.42.26.83.39,1.25C265.63,403.89,345.92,393.15,402.57,360.45Z" style="fill:#fff;opacity:0.7000000000000001"></path><path d="M97.53,235a12,12,0,0,0-4.32-3.87c-1.34-.65-3-1.08-4.36-1.73a13.72,13.72,0,0,0,3.44,4.12c2,1.71,4.37,3.05,6.4,4.79a9,9,0,0,1,2.51,3.17,18.08,18.08,0,0,0,5.65.47c3.36-.26,6.65-1.52,10-2.05l.83-.11a19.7,19.7,0,0,0-2.25-2.12c-1.92.46-3.63,1.41-5.56,1.91A10.85,10.85,0,0,1,97.53,235Zm2.55,20.38a29.63,29.63,0,0,1,6.69-1.35l12.65-1.54a11.37,11.37,0,0,0,1.17-3.39c-.75.28-1.5.57-2.19.87-.21.08-.89.23-.89.23a41.49,41.49,0,0,1-9.83,1.4c-2.28,0-4.83-.05-6.79.93a13.54,13.54,0,0,1-1.65.87,3.56,3.56,0,0,1-3.78-.77c-.9.76-1.83,1.48-2.77,2.19a2,2,0,0,1,0,.35c-.07,1.31-.89,2.67-1.25,4a7.74,7.74,0,0,0,.12,4.06,5.27,5.27,0,0,0,4,4.06c2.49.64,6.06.15,8.83.35.51-.59,1-1.16,1.6-1.71s1.23-1.18,1.9-1.78a26.12,26.12,0,0,0-3.17-.33,42.63,42.63,0,0,1-5.52-.31c-2.56-.47-4.17-1.93-4-3.61S97.35,256.41,100.08,255.39Zm29-45.58c3.3-.93,6-2.6,8.82-4.06s6.24-2.85,9.58-2.87a14.24,14.24,0,0,1,3.81.55,13.36,13.36,0,0,1,3.89,1.69,9.9,9.9,0,0,0,3-2q-4.38-1.23-8.9-2.2a18.84,18.84,0,0,1-5.94,2l-9.69,2a16.8,16.8,0,0,1-4.06,2,14.45,14.45,0,0,1-5.6.35l-.87-.13q-3.4.72-6.78,1.48a14.71,14.71,0,0,0,3.82,1.58A18.54,18.54,0,0,0,129.07,209.81Zm46.24-17.3a1.35,1.35,0,0,0-1.27-1c-.51,0-1.29.24-1.33.85s0,1.31,0,1.94c.88-.14,1.77-.28,2.65-.44A3.85,3.85,0,0,0,175.31,192.51Zm-82,28.88a6.78,6.78,0,0,1,4,1.22l4.5,2.69a5.22,5.22,0,0,1-.14-2.74,4.58,4.58,0,0,1,.57-1.25,13.2,13.2,0,0,1-1.25-.61c-2.6-1.43-4.59-3.27-5.34-5.43-.29.17-.58.32-.87.5a16.9,16.9,0,0,0-5.12,4.62,10.29,10.29,0,0,0-1.5,3.24,8.38,8.38,0,0,1,1.45-1.07A8.53,8.53,0,0,1,93.32,221.39ZM240,395.22a7,7,0,0,0-4.53-1.5c-2.84,0-5.54,1.4-8.15,2.56q7.05.42,14.13.58A7.13,7.13,0,0,0,240,395.22ZM457.39,284.69c-3.54-.69-3-4.05-6.41-4.9-2.16-.56-5.17.15-7.55,1.13s-4.43,2.25-6.89,3.12-6.69,2-8.55,1.64c-1-.21-.92-.9-.81-1.14.95-2.24,6.85-3.83,7.05-6,.08-.86-.62-1.57-1.38-2.2-2.52-2.11-5.88-3.87-7.44-6.34s-.76-6,3.58-8.07a17.89,17.89,0,0,1,13.25-.23c3.49,1.43,5.51,3.71,8.15,5.64,3.89,2.83,9.23,4.92,15.39,6.1,0-1.57,0-3.13-.09-4.7a2.42,2.42,0,0,1-1.11-1.68,4.12,4.12,0,0,1,.8-2.34c-.19-1.81-.43-3.62-.76-5.42a14.43,14.43,0,0,0-3.06-.75c-2.36-.34-5-.46-6.93-1.21-2.93-1.13-3.71-3.59-2.48-5.91a47.78,47.78,0,0,0-4.73-.71,6.35,6.35,0,0,0-.55,1.7c-.43,2.82,1.49,5.4,5.06,6.83,2.2.88,5.33.94,7.59,1.76s1.1,2.43.75,3.85a1.39,1.39,0,0,1-.6.93,4,4,0,0,1-3.13.14c-6.9-2.13-8.56-8.19-16.75-8.91-2.79-.25-6,.2-8.55-.3-2.94-.57-4.45-2.23-6-3.74q-3.56.91-7.06,2a14.16,14.16,0,0,1,4.22,1.8,4,4,0,0,1,1.07,5.6c-1.37,1.75-3.66,3.46-3.87,5.23-.11.93.33,1.9-.66,2.77-1.52,1.31-4.6,1.12-7.09,1.56s-4.84,1.79-7.39,2.45a13.09,13.09,0,0,1-14.92-5.52,17.84,17.84,0,0,0-3.49-3.64,77.49,77.49,0,0,1-8.1,1.4,10,10,0,0,1,2.06,1.08c2,1.33,3.12,3,4.78,4.52a20.43,20.43,0,0,0,7.24,3.91,22.48,22.48,0,0,0,8.75,1.11c4.05-.31,8-1.82,12.09-2.47a23.1,23.1,0,0,1,11.68.89c2.51,1,4.21,2.89,2.83,4.87-2,2.93-8.09,4.43-12.66,6.39-.25.1-1.07.28-1.07.28a50.44,50.44,0,0,1-11.87,1.69c-2.75,0-5.83-.06-8.19,1.13a15.52,15.52,0,0,1-2,1c-2.19.8-4.41-.24-4.92-1.48s-.14-2.71-1.17-3.76c-1.5-1.53-5.38-1.63-8.81-1.11a29,29,0,0,1-5,.59,8.66,8.66,0,0,1-5.06-1.81c-3.21-2.38-4.87-5.5-4.74-8.86a7.5,7.5,0,0,1,2.23-5.18,12,12,0,0,1,3.78-2.52c-3.7-.22-7.39-.79-11.08-1.24a5.26,5.26,0,0,1,.87,2.13c.55,3.37-2.27,7.14-1.89,10.55.28,2.6,2.46,4.82,5.67,6.33a14.22,14.22,0,0,1,3.38,1.83,1.71,1.71,0,0,1-.23,2.83c-1.33,1-3.68,1.27-5.59,1.22a22.2,22.2,0,0,0-5.8.21c-2.44.6-5,2.66-6.22,3.7a9.58,9.58,0,0,1-1.94,4.84,10.66,10.66,0,0,1-6.71,3.35,7.18,7.18,0,0,1-7.54-3.93,16.71,16.71,0,0,1-.59-13.36c.91-2.5,2.34-5.13,1.44-7.38-1-2.41-4.42-3.86-8.61-4.49q-2.73,1.57-5.43,3.26c.62,0,1.24,0,1.84.06,4.22.36,5.74,2.17,6.32,3.55.79,1.91-1,4-1.95,6.08a5.29,5.29,0,0,0,0,4.44c.73,1.83,3.59,4.62.29,5.78-2.09.73-2.79-1.51-4-2.37-2.2-1.51-6.25-1.89-10.16-1.31a33,33,0,0,0-10.79,3.76,32.47,32.47,0,0,1-4.93,2.49c-4.68,1.69-10.62.47-11.14-2.26-.32-1.76,1.24-3.73,1.21-5.53a2.34,2.34,0,0,0,0-.26c-1.83.25-3.67.43-5.51.57.23,1.55-.59,3.24-.23,4.79.2.87,1,1.21,1.22,2,.3,1-.6,2.16-1.38,2.71-3,2.1-7.69,2.11-11.13,1.73-4.46-.5-8.18-2.45-12.19-4.3A29,29,0,0,0,244.34,296l-1.12.4c-3,1.16-5.86,2.62-8.75,4a58.93,58.93,0,0,1,7.12-1.26,23.49,23.49,0,0,1,7.86,1c2.58.77,4.88,2.27,7.43,3,2,.6,4,1.2,6,1.61,2.29.47,4.74.82,6.61,2.33a3.92,3.92,0,0,1,1.54,2.48,4.9,4.9,0,0,1-2.33,4c-2.49,1.34-5.26,2.13-7.77,3.44-1.86,1-3.87,2.23-4.66,4.22l-1.86-.53-.77-.37c-1.13-.51-2.26-1-3.41-1.51a66.3,66.3,0,0,0-6.66-2.43,37.79,37.79,0,0,0-7-1.46c-2.4-.26-4.83-.29-7.22-.64a18,18,0,0,1-13-8.57c-1.11.07-2.21.11-3.32.11a21.46,21.46,0,0,0,12.35,10.3c3.88,1.21,8,1.07,12,1.6a43.51,43.51,0,0,0-7,1.43,32.16,32.16,0,0,0-5.89,2.8,25.5,25.5,0,0,1-5.57,2.81l-.11-.11c-1.07-.66-2.35-1-3.46-1.59a18.59,18.59,0,0,1-2.21-1.44c-1.43-1.08-2.76-2.27-4.14-3.41-2.87-2.37-5.92-4.36-9.67-4.89s-8.74.58-11.95-2.09c-1.63-1.35-1.73-3.49-2.25-5.4a7.81,7.81,0,0,0-3-4.43,11.63,11.63,0,0,0-1.6-1c-3.66-.77-7.32-1.44-11-1.85-1.3-.14-2.59-.3-3.88-.45-.5.3-1,.59-1.56.87a25.93,25.93,0,0,1-6.55,2.49,23.26,23.26,0,0,1-12.17-1.16,61.19,61.19,0,0,1-11.38-5c-1.68-1-3.32-2.1-3.28-3.62-1.53-.41-3.06-.83-4.59-1.29a18.66,18.66,0,0,1-16.41.11,15.37,15.37,0,0,1-5.56-5.22c-1.22-1.78-2.18-3.94-.29-6a11.75,11.75,0,0,1-1.52-3.15,21.35,21.35,0,0,0-2.28,1.81,8.88,8.88,0,0,0-2.54,4.28.69.69,0,0,0,.09.53c.87.87.65,2.17-1.13,2.88a10,10,0,0,1-5.88-.07,5.35,5.35,0,0,1-3.89-3.53,8,8,0,0,1,.56-4.75c.82-2.25,2.06-4.69.69-6.55a7.41,7.41,0,0,0-2.85-2,28.92,28.92,0,0,0-7.8-2.19c-.54.58-1.05,1.16-1.53,1.77a10.46,10.46,0,0,1,1.5.13c2,.33,3.29,1.83,1.65,2.95-1.47,1-3.77.89-5.89,1.17a19.11,19.11,0,0,0-1,2.33c-.15.43-.28.87-.39,1.3a16.74,16.74,0,0,1,2.71-1c2.83-.66,5.59.16,6.77,1.47s1.13,3,1.09,4.61,0,3.3,1.17,4.59,3.29,2,5.4,2.67a14.83,14.83,0,0,0,5.09,1c1.83,0,3.77-.55,5.56-.52a8.29,8.29,0,0,1,4.44,1.39,6.43,6.43,0,0,1,2.73,3.18,3.26,3.26,0,0,0,.3.63,7.33,7.33,0,0,1,.67,1.42c1.1,2.51,2.29,4.22.84,7a8.4,8.4,0,0,1-4.83,4,15,15,0,0,1-5,.74c-6.93,0-11.42-3-15.29-5.83l-7.36-5.38A47.68,47.68,0,0,0,87.7,307.63c.85.61,1.72,1.2,2.59,1.77a10.29,10.29,0,0,0,2,.33c1.46.1,3.06-.06,4.55,0s3,.49,3.16,1.33-1,1.83-2.38,2.69c.92.5,1.85,1,2.79,1.46a12.41,12.41,0,0,1,.84-1.25,25.9,25.9,0,0,1,5.45-5.19,45.53,45.53,0,0,0,4.07-3,2.72,2.72,0,0,1,1.79-1,4.71,4.71,0,0,1,2.4.36c2,.9,4.12,1.65,6.17,2.52,1.17.5,2.34,1,3.5,1.54a8.08,8.08,0,0,1,2.73,1.61c1,1.15-.07,2-.81,2.82a8.67,8.67,0,0,0-1.84,3.85,3.76,3.76,0,0,1-.78,1.94,3.18,3.18,0,0,1-2.29.61h-4.41a9.29,9.29,0,0,0-3.63.3q-.47.18-.9.39,2.76,1.13,5.53,2.19a10.92,10.92,0,0,1,5.2,1.83l.65.4,6.45,2.44c-.65-.75-1.27-1.53-1.93-2.25a16,16,0,0,0-1.91-1.77c-.38-.28-1.25-.88-.39-1.29a1.58,1.58,0,0,1,1,0c2.15.48,4.28,1.44,6.46,1.64a59,59,0,0,0,6.78.08c1.34,0,3.21-.09,4.26.92s.73,2.25,0,3.34-2.43,2.31-5.36,2.89c1.88.77,3.76,1.57,5.62,2.37,3.12-2,5.05-5.22,7.68-8.23,1.89-2.19,4.24-4.16,7.06-4.77a20.81,20.81,0,0,1,8.35.31,10.82,10.82,0,0,1,5.21,2.44,2.27,2.27,0,0,1,.68,2.75,36.21,36.21,0,0,1-2.16,3,5.69,5.69,0,0,0-.91,5.21c.67,1.74,2.33,3.45.85,5.33-1.21,1.52-4.07,2.51-6.09,3.79,1,.57,2,1.17,3,1.78a9.24,9.24,0,0,1,1.81-1.34,10.16,10.16,0,0,1,4.42-1.42,8.33,8.33,0,0,1,4.87,1.47l6.43,3.84a6.87,6.87,0,0,0,3.14,1.16c3.29.26,6.36-2,9.58-3.28a16.59,16.59,0,0,1,8.26-1,15,15,0,0,1,5.66,2.12,4,4,0,0,1,1.07,5.6c-1.38,1.75-3.66,3.46-3.87,5.23-.11.93.33,1.9-.66,2.77-1.52,1.31-4.6,1.11-7.09,1.56s-4.84,1.79-7.39,2.45a15.33,15.33,0,0,1-8-.16c.39,1,.75,2,1.07,3a21.89,21.89,0,0,0,3.24,0c4-.32,8-1.83,12.09-2.47a23.1,23.1,0,0,1,11.68.89c2.5,1,4.21,2.89,2.83,4.87-2,2.93-8.09,4.42-12.67,6.39-.24.1-1.06.28-1.06.28a51,51,0,0,1-11.87,1.69l-1.7,0,.48,2.93.13,0,21.92-2.68a55.62,55.62,0,0,0,12.41-2.48c1.66-.62,3.19-1.37,4.86-2,2.54-.89,4.12-1.51,6.73-1.47,0,0,.91.1,1.18.16,2.84.65,4.42,2.46,4.4,4.37s-2.08,4.13-5.27,5.22a27.68,27.68,0,0,1-5.09,1l-8.26,1.16a62.48,62.48,0,0,0-11,2.2c-3.48,1.16-6.67,3.07-7.58,5.2-.22.53-.36,1.11-.6,1.66,1.8.22,3.61.42,5.42.62-.22-.27-.44-.53-.64-.79s-.49-.65-.35-1a2.19,2.19,0,0,1,.75-.82c2.29-1.7,5.77-2.76,9.13-3.4s6.77-.91,10.14-1.51a50.21,50.21,0,0,0,16.66-6,14.47,14.47,0,0,1,2.55-2.59c2.29-1.51,6.14-1.54,8.48-.71s3.71,2.3,5.59,3.43c2.22,1.33,5.14,2.21,7.78,3.28s5.08,2.4,5.89,4.29-.42,4.44-3.65,5.85c-1.74.75-3.79,1.11-5.65,1.72,3-.14,6.07-.3,9.1-.52.12-.1.22-.2.35-.3,1.84-1.5,4.18-2.88,5.39-4.53,1.93-2.62.43-5.29-2.49-6.9s-7-2.37-11.05-3.11c-1.65-.31-3.54-.82-3.39-1.91.11-.92,1.74-1.77,3.32-2.15s3.23-.41,4.85-.63a20.13,20.13,0,0,0,9.06-3.51l.33-.41a4.85,4.85,0,0,1,.36-4.43,8.59,8.59,0,0,1,6.06-3.21c3-.26,5.07,1.11,5.92,2.61a5.55,5.55,0,0,1,0,5.35c-.7,1.41-1.89,3-1,4.09s3.76,1.29,6.24,1.1,5.16-.59,7.25-.11a4.5,4.5,0,0,1,3.71,4.53,4.05,4.05,0,0,1-1.47,3.76c-.73.61-1.76,1.11-2.6,1.67a8.27,8.27,0,0,0-3.65,5.14c1.8-.26,3.59-.55,5.39-.85a14.33,14.33,0,0,1,1.06-1.65,3.86,3.86,0,0,1,2-1.53,3.61,3.61,0,0,1,4,1.35l.42.53c1.5-.28,3-.58,4.47-.87a9.44,9.44,0,0,1-3.7-2.43c-.85-1-3.08-4.8-1.15-5.78a2.17,2.17,0,0,1,1.24-.12c2.57.27,5.22.62,7.68-.15a16.8,16.8,0,0,1,2.56-.79,6.15,6.15,0,0,1,2,.07c1.8.3,4.49.57,3.38,3a6.36,6.36,0,0,1-.75,1.18,16.73,16.73,0,0,1-2.84,3.22q10.41-2.37,20.45-5.38c-.87-.33-1.71-.7-2.42-.95-3.07-1.12-6.2-2.71-7.87-5.51-1.25-2.08-1.54-4.58-2.5-6.8-2.71-6.26-10.54-4.57-15.5-7.59a10.16,10.16,0,0,1-3.55-3.64c-1-1.75-1.41-4,1-5.75a13.61,13.61,0,0,1,6.81-2.07,34.15,34.15,0,0,1,6.94.44l9.35,1.24a25.42,25.42,0,0,0,5.81.18,46.47,46.47,0,0,1,9.48,3.28,28.59,28.59,0,0,1,2.79,1.59c.75.5,2.14,1.25,2.36,2.21.38,1.73-3.57,2.61-4.62,3a20.23,20.23,0,0,0-5.85,3.08,5,5,0,0,0-1.93,4.35c.3,2.16,2.34,3.55,3.85,5.12a7,7,0,0,1,2.23,5.6l-.06.25q3.17-1,6.29-2.13a6.58,6.58,0,0,0-.6-2.4c-1.37-2.92-4.61-4.23-6-7.05a2.51,2.51,0,0,1,.56-2.73,7.11,7.11,0,0,1,2.51-1.57,49.37,49.37,0,0,1,11.2-3.93,33,33,0,0,0,5.4-1.13c1.15-.41,2.22-1.25,3.42-1.46,1.48-.27,3,.41,4.5.52,1.83.14,3.67-.08,5.5,0s3.56.58,3.81,1.6c.36,1.49-2.48,3-4.47,4.28-2.63,1.77-4.16,3.87-5.91,5.91q5.55-2.49,10.9-5.22a17.19,17.19,0,0,1,1-1.47,31.19,31.19,0,0,1,6.58-6.26c2.54-1.84,5.61-3.63,6.77-5.74,1.47-2.63-.34-5,0-7.62a2.39,2.39,0,0,1,1.46-2,7.63,7.63,0,0,1,2.28-.51l9.69-1.16a15.8,15.8,0,0,1,5.39-.06,5.31,5.31,0,0,1,2.45,1.44c.84-.72,1.68-1.43,2.5-2.15a3.54,3.54,0,0,1-1.49-2.7,8.54,8.54,0,0,1,.9-2.77,22.35,22.35,0,0,1,1.67-4.32,8.46,8.46,0,0,1,5.17-3.48,15.92,15.92,0,0,1,6.54.22c.52-.62,1-1.23,1.53-1.85a27,27,0,0,1-4.91-.38c-2.67-.42-6-.7-8.57.52a5.16,5.16,0,0,0-2.92,3.41,14.65,14.65,0,0,1-.9,3.62c-1.42,2.79-6.52,5.13-11.37,5.69A21.82,21.82,0,0,1,404.28,336a18.67,18.67,0,0,1-6.7-6.3c-1.5-2.19-2.68-4.84-.25-7.31s7.61-4,9.32-6.47c1.24-1.81.66-4,3.45-5.26a8.43,8.43,0,0,1,5.21-.26c1.5.41,2.65,1.1,4,1.59,4.46,1.57,11.63.78,16.44-1.82,1.87-1,3.67-2.35,6-2.58a4.74,4.74,0,0,1,4.14,1.38c.74.88,1.44,2.08,2.27,2.93s3.1,2.21,4.45,3.32c.52-.83,1-1.65,1.51-2.48a5.76,5.76,0,0,1-.77-.9c-1.51-2.16-1.73-4.76-4-6.62a7.12,7.12,0,0,0-4.52-1.5c-3.09,0-6,1.65-8.81,2.85a20.72,20.72,0,0,1-9.78,1.89c-3.72-.41-5.56-2.47-7.06-4.39-.24-.31-.49-.64-.35-1a2.17,2.17,0,0,1,.75-.81c2.29-1.7,5.77-2.77,9.13-3.41s6.77-.91,10.14-1.51a50.13,50.13,0,0,0,16.66-6,14.47,14.47,0,0,1,2.55-2.59,10,10,0,0,1,6.11-1.19c.27-1.29.51-2.58.72-3.88C462.26,284.3,459.63,285.13,457.39,284.69ZM307.12,296.46a18.69,18.69,0,0,1,9.27-.1,19.25,19.25,0,0,1,6.5,3.18,33.23,33.23,0,0,1,6,4.89c1.89,1.46,5.93,1.8,9.41.78a19.19,19.19,0,0,1,2.13-.6c2.91-.5,4.54,1.13,6.09,2.3,2.35,1.76,6.26,2.74,10.56,2.65,2.71-.06,5.65-.52,8.08-.12s4,2.21,2,3.57c-2.3,1.58-6.32.85-9.34,1.9a36.81,36.81,0,0,1-3.72,1.54,8.79,8.79,0,0,1-5-.66,27.05,27.05,0,0,0-10.65-1.66c-5.42.31-10.74,2.45-15.55,4.58a13.27,13.27,0,0,1-2.74,1,9.51,9.51,0,0,1-2.81.06c-7-.66-10.81-4.35-14-7.79-2.16-2.34-4.32-4.8-4.26-7.7S302.12,297.86,307.12,296.46Zm-33,11.19a3.41,3.41,0,0,1,.85-1.2,9.21,9.21,0,0,1,3-1.53c1.6-.57,3.46-1.58,5.17-1.67,1.37-.08,2.75,0,4.14-.08a13.88,13.88,0,0,1,4.6.16c2.18.65,2.39,2.38,2.64,3.89.73,4.3,3.57,8.2,8.12,11.17a14.81,14.81,0,0,0,4.53,2.07c3.11.8,7.27.67,9.6,2,3.18,1.85,1.48,5.38-.36,8.34a5,5,0,0,1-1.74,1.84c-1.9,1.14-4.82.93-6.75.32a11.52,11.52,0,0,1-3.81-2,37.22,37.22,0,0,0-3.07-2.75c-2.53-1.64-6.51-1.9-9.41-1.43-3.19.53-6,1.25-8.61-1.4a20,20,0,0,1-3-4.88,25,25,0,0,0-4.13-5.6c-.95-1-2.15-2-2.24-3.45A8.54,8.54,0,0,1,274.13,307.65ZM148.66,321.43c-1.33,1.49-3.39,0-5-.16a36,36,0,0,0-5.09-.12c-1.84,0-12.75-.22-10.82-3.78,1-1.79,2.93-2.75,3.36-4.89a4.55,4.55,0,0,0-2.24-4.56c-3.71-2.59-8.45-3.32-12.33-5.57-1.79-1-4-3.58-4-5.74a.93.93,0,0,1,.23-.71,1.11,1.11,0,0,1,.7-.16,52.73,52.73,0,0,0,8.32-.66,31.91,31.91,0,0,1,3.52-.43,8.58,8.58,0,0,1,2.53,0,5.18,5.18,0,0,1,2.54,1.69c3.76,3.74,9.57,6.62,16.64,8.26,1.69.39,3.52.73,4.53,1.58s.74,2.37-1.08,3.1c-1.41.55-3.3.47-4.88.87-2.07.51-2,1.1-1.72,1.71a34.18,34.18,0,0,0,3.16,4.73C147.91,317.76,149.92,320,148.66,321.43Zm21.61-5.56a15,15,0,0,0-9.69.65c-.61.22-1.17.48-1.73.73a10.07,10.07,0,0,1-4,1.14,6.19,6.19,0,0,1-5.19-2.31,1.63,1.63,0,0,1-.31-.65,1.57,1.57,0,0,1,1.07-1.57c.62-.28,1.33-.32,2-.55a3.59,3.59,0,0,0,2.22-2.48c.16-.68.12-1.41.26-2.1.53-2.58,3.38-4.06,5.5-5.21l5.74-3.08.57-.31a1,1,0,0,0,.69.33,29.59,29.59,0,0,1,7.57.63c2.05.48,4.75,1.17,6.19,2.82,1.3,1.49,1.24,3.74,1.8,5.55a7.78,7.78,0,0,0,3.33,4.29c3.5,2.27,7.69,1.81,11.64,2.09s6.76,2.32,9.66,4.77a37.45,37.45,0,0,0,6.49,4.85,20,20,0,0,1-2.09-.14c-3.91-.47-7-1.8-10.34-2.87a26.27,26.27,0,0,0-11.48-1.4c-2.79.35-5.66,1.27-8.32,1.18a9.28,9.28,0,0,1-6.35-2.8C174.08,318.08,172.79,316.56,170.27,315.87Zm37.79,24c-4.2.24-7.85,2.79-12.05,3.64a17.18,17.18,0,0,1-11.66-2c-3.61-2-6.26-4.64-6.76-7.78a6.74,6.74,0,0,1,2.36-6.09c3.25-3.05,10.18-4.9,15.16-4s7.46,4,12.27,5.18a22.21,22.21,0,0,0,10.8-.42c4-1.12,7.23-3.13,10.64-4.89s7.52-3.44,11.55-3.46a16.91,16.91,0,0,1,4.6.65c3.45.95,6.27,2.6,7.15,4.82s-.37,5.07-3.7,7c-1.14.68-2.47,1.24-3.69,1.86-4.1,2.11-6.84,5.11-7.26,7.93s1.49,5.4,5.06,6.82c2.19.89,5.32.94,7.59,1.77s1.1,2.43.75,3.84a1.41,1.41,0,0,1-.6.94,4.13,4.13,0,0,1-3.13.14c-6.9-2.14-8.56-8.2-16.75-8.92-2.79-.24-6,.2-8.55-.3-3.06-.59-4.57-2.37-6.22-3.92A9.76,9.76,0,0,0,208.06,339.9Zm70.24,30.54c-.21,1.62-2.26,3.45-5.06,4.09-5.13,1.18-8.75-1.93-13.9-1.6-3.84.25-8,2.39-11.35,1.74-3.55-.69-3-4.05-6.41-4.91-2.16-.55-5.17.15-7.55,1.14s-4.43,2.24-6.89,3.12-6.7,2-8.56,1.63c-1-.2-.92-.89-.81-1.14.95-2.24,6.86-3.82,7.06-6,.07-.85-.62-1.56-1.38-2.2-2.52-2.1-5.88-3.86-7.44-6.33s-.76-6,3.57-8.08a17.91,17.91,0,0,1,13.26-.22c3.49,1.42,5.51,3.71,8.15,5.64,5.18,3.76,12.92,6.23,21.77,6.95,2.39.19,4.88.26,7.16.61a17.66,17.66,0,0,1,5.44,1.63C277.22,367.44,278.52,368.82,278.3,370.44ZM292.86,353a2.89,2.89,0,0,0-2.31,2.08c-.13.81.14,1.58-.23,2.4-.84,1.9.13,3.78-2.35,5.35a13.23,13.23,0,0,1-6.65,1.6,28.74,28.74,0,0,1-6.28-.88L262,360.72c-3.14-.69-6.6-1.65-6.8-3.7s2.76-4.18,2.14-6c-.45-1.41-2.8-2.12-5.16-2.47s-5-.47-6.94-1.21c-2.92-1.13-3.7-3.59-2.47-5.9s4.16-4.45,7.57-6.09a22.36,22.36,0,0,1,7.42-2.28,12.22,12.22,0,0,1,10.86,4.12c2,2.42,3.13,5.25,6.56,7,3.94,2,10.08,2.07,15.71,2.42s11.57,1.28,13.57,4.17c.66,1,.62,2.35-1.05,3.17a7.23,7.23,0,0,1-4.6.34c-1.34-.33-2.43-.9-3.84-1.17A5.06,5.06,0,0,0,292.86,353Zm27.48,12.68c3,1,6.29,1.35,9.33,2.4s6,3.12,6.86,6.22a3.74,3.74,0,0,1-.26,3,3.8,3.8,0,0,1-3.21,1.49c-1.23,0-2.44-.3-3.67-.4A10.51,10.51,0,0,0,325,379c-2.3.83-5.59.26-7.9-.27a8.49,8.49,0,0,1-3.18-1.24c-.66-.48-1.11-1.13-1.8-1.59a10,10,0,0,0-5.78-1.5c-1.78,0-3.72.44-5.29.15a2.63,2.63,0,0,1-2.41-2.18,6.17,6.17,0,0,1,.86-3c.69-1.48,1.34-3.08.39-4.29s-3.21-1.71-4.14-2.86c-1.14-1.39.15-3.54,2.8-4.66a5.3,5.3,0,0,1,1.25-.37,7.39,7.39,0,0,1,1.56.05,12.69,12.69,0,0,0,5.33-.66c1.59-.67,3-2.71,4.91-1.6,1.47.84,1.46,2.9,1.92,4.53C314.32,362.61,317.3,364.67,320.34,365.72Zm30.17-19.1c-2.26,1.88-6.85,2-9.79,1.27s-5.18-2.19-8.46-2.58a26,26,0,0,0-12.46,2c-4.31,1.88-8.6,2.81-13,.45-1.21-.64-2.32-1.48-3.53-2.12-5.93-3.15-13.39-1.92-19.83-3.59-5.24-1.37-7.88-4.52-11.58-8.09a20,20,0,0,0-6.57-4c-2.22-.93-5-2.22-5.56-4.8a7.32,7.32,0,0,1-.08-2.29,3.76,3.76,0,0,1,.57-1.86.18.18,0,0,1,.05-.07,3.91,3.91,0,0,1,1.2-.93c1.52-.85,3.12-1.5,4.7-2.2,1.19-.53,1.95-1.34,3.35-1.36,2.48,0,4.29,1.91,5,4.14s1.05,4.89,2.34,7.09a11.54,11.54,0,0,0,8.62,5.28c3.86.38,6.89-2.45,10.86-2.33,8.62.26,5.75,5.26,14.93,5.45,2.08,0,4.33-.06,6.19.16,2.73.32,4,1.25,6.63,1.62a53.17,53.17,0,0,0,10.88-.13c4.06-.32,8.39-.68,11.73-.24,1.84.25,3.86.85,4.4,1.52a5,5,0,0,1,.77,5.73A5.51,5.51,0,0,1,350.51,346.62Zm26,10.4c-3.68,1.33-9.51,1.5-13-.6-1.43-.86-2.57-2.08-4.15-2.87a40.5,40.5,0,0,0-7.3-2.7c1.9-1.6,2-4,4.94-4.77a7.82,7.82,0,0,1,4.32.23c7,2.11,9.93,6.86,15,10.27.15.11.32.21.49.31Zm20.81-21.1a7.75,7.75,0,0,1,3.29,3.84,4.59,4.59,0,0,0,.36.76,8.49,8.49,0,0,1,.81,1.7c1.33,3,2.77,5.1,1,8.48a10.2,10.2,0,0,1-5.84,4.82,18,18,0,0,1-6,.88c-8.35,0-13.78-3.62-18.45-7l-12.32-9c-3.78-2.75-8.14-5.68-14.85-5.75-5.21-.06-11,1.65-15.89,1.08-5.66-.66-8.11-4.29-7.23-7.86.66-2.6,3-5.43,7-7.16a26.92,26.92,0,0,1,4.69-1.43,14.59,14.59,0,0,1,5.55-.38,15.21,15.21,0,0,1,3,1.15c3.68,1.5,9.61,1.28,14.27-.54a37,37,0,0,1,4.88-1.85c3.41-.81,6.74.19,8.17,1.77s1.36,3.61,1.32,5.56-.06,4,1.4,5.54,4,2.39,6.52,3.23a18.19,18.19,0,0,0,6.14,1.15c2.21,0,4.55-.67,6.72-.62A10,10,0,0,1,397.28,335.92Zm2.82-20.66c-2.24,2-5.34,3.65-7.45,5.65a10.68,10.68,0,0,0-3.07,5.16.82.82,0,0,0,.11.65c1.05,1,.78,2.61-1.37,3.46s-5.23.48-7.09-.08a6.45,6.45,0,0,1-4.69-4.26,9.65,9.65,0,0,1,.67-5.73c1-2.72,2.48-5.65.84-7.9a8.93,8.93,0,0,0-3.45-2.41,34.46,34.46,0,0,0-9.57-2.67c-3.58-.5-7.53-.61-10.75-1.49-3.88-1.07-6.49-3.42-5.9-6.18s4.9-5.76,9.71-6.31c4.07-.47,8.35.61,11.89-1,2.43-1.12,3.58-3.24,6.36-3.86a6.67,6.67,0,0,1,4.85.81,4.62,4.62,0,0,1,2.5,4.14c-.09,1.57-1.07,3.21-1.51,4.82a9.34,9.34,0,0,0,.15,4.9,6.33,6.33,0,0,0,4.82,4.9c4.34,1.11,11.39-.62,14.36,1.44C403.61,310.72,402.35,313.29,400.1,315.26ZM446.9,293a26.89,26.89,0,0,1-5.09,1.05l-8.25,1.15a61.23,61.23,0,0,0-10.95,2.21c-3.49,1.15-6.68,3.06-7.59,5.19-.51,1.23-.55,2.73-2.49,3.46s-3.92,0-5.46-.66a26.92,26.92,0,0,0-8.86-1.75,51.31,51.31,0,0,1-6.67-.37c-3.08-.57-5-2.32-4.81-4.35s2.57-4.23,5.87-5.46a35.33,35.33,0,0,1,8.07-1.62l21.92-2.69A55.82,55.82,0,0,0,435,286.68c1.65-.61,3.18-1.37,4.85-2,2.54-.88,4.12-1.5,6.73-1.46,0,0,.91.09,1.18.15,2.84.66,4.42,2.46,4.4,4.37S450.09,291.91,446.9,293Z" style="fill:#fff;opacity:0.5"></path></g></g></g><g id="Sun"><g id="sun"><circle id="sun" cx="407.63" cy="45.44" r="16.38" transform="translate(13.64 159.45) rotate(-22.5)" style="fill:#ffbda7;opacity:0.5"></circle><path id="sun" d="M417.39,45.44a9.76,9.76,0,1,1-9.76-9.76A9.76,9.76,0,0,1,417.39,45.44Z" style="fill:#ffbda7"></path></g></g><g id="Mountain"><g id="mountain"><path d="M162.61,208q5.12-6.79,10.41-13.44c11.71-14.74,24-29,36.28-43.28,5.72-6.65,11.41-13.59,17.62-19.75a8.56,8.56,0,0,1,4-2.68c2.66-.57,3.23,1.91,4.94,3.06a18,18,0,0,1,3.79,3.81c7.64,9.3,15.28,18.58,23,27.81q5.89,7,11.84,14a27.85,27.85,0,0,0,6.79,6.39A6.71,6.71,0,0,0,284,185c2,.2,3.82-1.25,5.35-2.61l4.88-4.33a12.5,12.5,0,0,1,4.09-2.77c2.56-.88,5.76.85,7.71,2.45C314.82,185,323,193.15,331.14,201s16.09,16.24,23.54,24.91a3.46,3.46,0,0,1,1.08,2.08,3.27,3.27,0,0,1-.62,1.71c-5.6,9.21-15.91,14.89-26.53,16.71a62.61,62.61,0,0,1-19.42,0c-5.73-.82-9.82-2-15.44-.58-12,3.08-23.13,8.36-35,11.7a67.55,67.55,0,0,1-42.19-2c-6.26-2.42-12.24-5.79-18.85-7-8.48-1.49-17.66.79-25.84-2.41-7.33-2.86-15.48-4.86-21.59-10.09-6.7-5.74,2.42-14.48,5.9-19.32Q159.32,212.34,162.61,208Z" style="fill:#7CB88A"></path><path d="M162.61,208q5.12-6.79,10.41-13.44c11.71-14.74,24-29,36.28-43.28,5.72-6.65,11.41-13.59,17.62-19.75a8.56,8.56,0,0,1,4-2.68c2.66-.57,3.23,1.91,4.94,3.06a18,18,0,0,1,3.79,3.81c7.64,9.3,15.28,18.58,23,27.81q5.89,7,11.84,14a27.85,27.85,0,0,0,6.79,6.39A6.71,6.71,0,0,0,284,185c2,.2,3.82-1.25,5.35-2.61l4.88-4.33a12.5,12.5,0,0,1,4.09-2.77c2.56-.88,5.76.85,7.71,2.45C314.82,185,323,193.15,331.14,201s16.09,16.24,23.54,24.91a3.46,3.46,0,0,1,1.08,2.08,3.27,3.27,0,0,1-.62,1.71c-5.6,9.21-15.91,14.89-26.53,16.71a62.61,62.61,0,0,1-19.42,0c-5.73-.82-9.82-2-15.44-.58-12,3.08-23.13,8.36-35,11.7a67.55,67.55,0,0,1-42.19-2c-6.26-2.42-12.24-5.79-18.85-7-8.48-1.49-17.66.79-25.84-2.41-7.33-2.86-15.48-4.86-21.59-10.09-6.7-5.74,2.42-14.48,5.9-19.32Q159.32,212.34,162.61,208Z" style="fill:#fff;opacity:0.25"></path><g style="opacity:0.5"><path d="M258.74,257.56a33.24,33.24,0,0,1-2.34-7.06c-.65-3.11-.84-6.28-1.35-9.4-.44-2.69-1.63-5.21-2.34-7.86a93.15,93.15,0,0,1-3-17.79c0-.49-.26-1.15-.75-1.06-1.43.27-.21,13.65-.22,15q0,3.6-.2,7.19-.17,3.21-.48,6.41c-.18,1.83-.67,3.55-.72,5.37a40.07,40.07,0,0,1-.42,7,15,15,0,0,1-1.72,4.48,66.52,66.52,0,0,0,13.5-2.29Z" style="fill:#7CB88A"></path><path d="M203.56,242.77c-7.1-.82-13.81,1.45-18.89-5.15-.91-1.19-1.63-2.79-1-4.16a4.37,4.37,0,0,1,1.6-1.68c3.77-2.56,8.57-3.21,12.39-5.69,6.63-4.31,8.79-12.86,10.34-20.61a15.87,15.87,0,0,1,2-6,18.49,18.49,0,0,1,3.79-3.65,53.18,53.18,0,0,0,6.9-6.77,13.23,13.23,0,0,0,3.07-5.24c.6-2.44,0-5-.76-7.4-2.69-9-11.05-20.33-8.47-29.91a13.67,13.67,0,0,1,1-2.61c-2.1,2.44-4.18,4.9-6.26,7.32C197,165.52,184.73,179.8,173,194.54q-5.29,6.65-10.41,13.44-3.29,4.36-6.47,8.79c-3.48,4.84-12.61,13.58-5.9,19.32,6.11,5.23,14.26,7.23,21.59,10.09,8.18,3.2,17.36.92,25.84,2.41,6.61,1.17,12.59,4.54,18.85,7a67.15,67.15,0,0,0,16,4C222.57,254.27,214.74,244.05,203.56,242.77Z" style="fill:#7CB88A"></path><path d="M346.8,234.26a53.11,53.11,0,0,1-9.81-7.37c-6.11-6.09-11.82-12.58-17.59-19,2.37,9.28,10.08,15.79,12.46,25.26.95,3.77,1.46,8.09,3.14,11.73a39.61,39.61,0,0,0,14.72-8.51C348.34,235.34,347.14,234.48,346.8,234.26Z" style="fill:#7CB88A"></path><path d="M295.49,245.51l0,0c-2.42-1.67-5.48-3.21-7.58-5.25-3.43-3.33-7.09-7.65-9-12-1.13-2.63-1.66-5.48-2.88-8.07a37.66,37.66,0,0,0-4.76-6.92,148.93,148.93,0,0,1-13.77-20.83,89.25,89.25,0,0,0,7.58,18.48,51,51,0,0,1,2.86,5.61c2.49,6.32,1.56,13.56,4.2,19.81.75,1.78,1.77,3.44,2.41,5.25,1,2.8.85,7.1,2.22,9.91a176.49,176.49,0,0,1,17-5.55Q294.65,245.65,295.49,245.51Z" style="fill:#7CB88A"></path><path d="M302.79,192.36c1.23.95,3.07-.63,3-2.18s-1.19-2.81-2.12-4.05a20.52,20.52,0,0,1-4-11,4.39,4.39,0,0,0-1.3.23,12.5,12.5,0,0,0-4.09,2.77l-4.88,4.33c-1.53,1.36-3.31,2.81-5.35,2.61a5.2,5.2,0,0,1-1.74-.55q10.18,9.7,20.95,18.76c1.15,1,2.58,2,4,1.51C308.24,200.35,301.94,196.81,302.79,192.36Z" style="fill:#7CB88A"></path></g></g></g><g id="Trees"><g id="Pines"><g id="Pine"><path d="M67.28,160.88a1.59,1.59,0,0,0-3,0c-4.14,11.46-9.83,40.83-8.7,45.76,3.18,2,17.3,2.27,20.38,0C77.11,201.71,71.42,172.34,67.28,160.88Z" style="fill:#7CB88A"></path><path d="M67.28,160.88a1.59,1.59,0,0,0-3,0c-4.14,11.46-9.83,40.83-8.7,45.76,3.18,2,17.3,2.27,20.38,0C77.11,201.71,71.42,172.34,67.28,160.88Z" style="opacity:0.15"></path><path d="M66.54,193.52l4.3-8.09-4.37,5.36-.68-25.12L65.27,181l-3.07-4.43,3,7.19-.53,15.48-5.83-5.38,5.75,7.63-.49,14.21c0,.9,3.06.9,3.06,0l-.59-22.14Z" style="fill:#7CB88A"></path><path d="M66.54,193.52l4.3-8.09-4.37,5.36-.68-25.12L65.27,181l-3.07-4.43,3,7.19-.53,15.48-5.83-5.38,5.75,7.63-.49,14.21c0,.9,3.06.9,3.06,0l-.59-22.14Z" style="fill:#fff;opacity:0.6000000000000001"></path></g><g id="pine"><path d="M119.09,139.63a1.38,1.38,0,0,0-2.59,0c-3.6,10-8.54,35.46-7.56,39.75,2.76,1.7,15,2,17.71,0C127.63,175.09,122.69,149.58,119.09,139.63Z" style="fill:#7CB88A"></path><path d="M119.09,139.63a1.38,1.38,0,0,0-2.59,0c-3.6,10-8.54,35.46-7.56,39.75,2.76,1.7,15,2,17.71,0C127.63,175.09,122.69,149.58,119.09,139.63Z" style="opacity:0.15"></path><path d="M118.44,168l3.74-7-3.8,4.66-.59-21.82-.45,13.28-2.66-3.85,2.57,6.24-.46,13.45-5.07-4.67,5,6.63-.42,12.35c0,.78,2.66.78,2.66,0L118.44,168Z" style="fill:#7CB88A"></path><path d="M118.44,168l3.74-7-3.8,4.66-.59-21.82-.45,13.28-2.66-3.85,2.57,6.24-.46,13.45-5.07-4.67,5,6.63-.42,12.35c0,.78,2.66.78,2.66,0L118.44,168Z" style="fill:#fff;opacity:0.6000000000000001"></path></g><g id="pine"><path d="M95.24,154.3a1.38,1.38,0,0,1,2.6,0c3.62,10,8.58,35.63,7.6,39.94-2.78,1.71-15.1,2-17.79,0C86.66,189.93,91.63,164.3,95.24,154.3Z" style="fill:#7CB88A"></path><path d="M101.16,179l-3.73,5.29L97,172.87l2-6.82L97,170.71l-.42-12.23-.47,17.64-2.1-2.5,2,4.82-.27,10-4.34-4.32,4.26,7.25-.29,10.73c0,.79,2.67.79,2.67,0l-.49-14.43Z" style="fill:#7CB88A"></path><path d="M101.16,179l-3.73,5.29L97,172.87l2-6.82L97,170.71l-.42-12.23-.47,17.64-2.1-2.5,2,4.82-.27,10-4.34-4.32,4.26,7.25-.29,10.73c0,.79,2.67.79,2.67,0l-.49-14.43Z" style="fill:#fff;opacity:0.8"></path></g><g id="pine"><path d="M76.28,170.44a1.38,1.38,0,0,1,2.6,0c3.61,10,8.58,35.62,7.6,39.93-2.78,1.71-15.11,2-17.8,0C67.7,206.06,72.66,180.43,76.28,170.44Z" style="fill:#7CB88A"></path><path d="M76.93,198.92l-3.76-7.06L77,196.54l.59-21.93L78,188l2.67-3.86-2.59,6.27.47,13.51,5.09-4.69-5,6.66.43,14.72c0,.79-2.67.79-2.67,0l.52-21.64Z" style="fill:#7CB88A"></path><path d="M76.93,198.92l-3.76-7.06L77,196.54l.59-21.93L78,188l2.67-3.86-2.59,6.27.47,13.51,5.09-4.69-5,6.66.43,14.72c0,.79-2.67.79-2.67,0l.52-21.64Z" style="fill:#fff;opacity:0.8"></path></g><g id="pine"><path d="M47.89,188a1.38,1.38,0,0,0-2.6,0c-3.62,10-8.58,35.63-7.6,39.94,2.78,1.71,15.1,2,17.79,0C56.47,223.64,51.5,198,47.89,188Z" style="fill:#7CB88A"></path><path d="M47.24,216.5,51,209.43l-3.81,4.68-.59-21.92-.46,13.34-2.67-3.86,2.59,6.27-.47,13.51-5.09-4.69,5,6.66-.42,12.4c0,.79,2.67.79,2.67,0l-.52-19.32Z" style="fill:#7CB88A"></path><path d="M47.24,216.5,51,209.43l-3.81,4.68-.59-21.92-.46,13.34-2.67-3.86,2.59,6.27-.47,13.51-5.09-4.69,5,6.66-.42,12.4c0,.79,2.67.79,2.67,0l-.52-19.32Z" style="fill:#fff;opacity:0.8"></path></g></g><g id="pines"><g id="pine"><path d="M260,224a1.57,1.57,0,0,1,1.5-1,1.55,1.55,0,0,1,1.49,1c4.14,11.45,9.83,40.82,8.7,45.76-3.18,2-17.3,2.27-20.39,0C250.18,264.85,255.87,235.48,260,224Z" style="fill:#7CB88A"></path><path d="M260,224a1.57,1.57,0,0,1,1.5-1,1.55,1.55,0,0,1,1.49,1c4.14,11.45,9.83,40.82,8.7,45.76-3.18,2-17.3,2.27-20.39,0C250.18,264.85,255.87,235.48,260,224Z" style="opacity:0.15"></path><path d="M260.75,256.67l-4.3-8.09,4.37,5.36.68-25.12L262,244.1l3.06-4.42-3,7.18.53,15.49,5.83-5.38-5.75,7.63.49,14.21c0,.9-3.06.9-3.06,0l.59-22.14Z" style="fill:#7CB88A"></path><path d="M260.75,256.67l-4.3-8.09,4.37,5.36.68-25.12L262,244.1l3.06-4.42-3,7.18.53,15.49,5.83-5.38-5.75,7.63.49,14.21c0,.9-3.06.9-3.06,0l.59-22.14Z" style="fill:#fff;opacity:0.6000000000000001"></path></g><g id="pine"><path d="M195.38,215.09a1.38,1.38,0,0,1,2.6,0c3.59,9.95,8.54,35.47,7.56,39.75-2.77,1.7-15,2-17.71,0C186.85,250.56,191.79,225,195.38,215.09Z" style="fill:#7CB88A"></path><path d="M195.38,215.09a1.38,1.38,0,0,1,2.6,0c3.59,9.95,8.54,35.47,7.56,39.75-2.77,1.7-15,2-17.71,0C186.85,250.56,191.79,225,195.38,215.09Z" style="opacity:0.15"></path><path d="M196,243.45l-3.73-7,3.8,4.66.58-21.82.46,13.28,2.66-3.85-2.58,6.24.46,13.46,5.07-4.68-5,6.63.42,12.35c0,.78-2.65.78-2.65,0l.51-19.23Z" style="fill:#7CB88A"></path><path d="M196,243.45l-3.73-7,3.8,4.66.58-21.82.46,13.28,2.66-3.85-2.58,6.24.46,13.46,5.07-4.68-5,6.63.42,12.35c0,.78-2.65.78-2.65,0l.51-19.23Z" style="fill:#fff;opacity:0.6000000000000001"></path></g><g id="pine"><path d="M219.24,229.76a1.38,1.38,0,0,0-1.31-.91,1.35,1.35,0,0,0-1.3.91c-3.61,10-8.58,35.63-7.59,39.94,2.77,1.71,15.1,2,17.79,0C227.81,265.39,222.85,239.76,219.24,229.76Z" style="fill:#7CB88A"></path><path d="M213.31,254.45l3.74,5.29.39-11.41-2-6.82,2.09,4.66.42-12.23.48,17.64,2.09-2.5-2,4.82.27,10,4.33-4.32-4.25,7.25.28,10.73c0,.79-2.67.79-2.67,0l.5-14.43Z" style="fill:#7CB88A"></path><path d="M213.31,254.45l3.74,5.29.39-11.41-2-6.82,2.09,4.66.42-12.23.48,17.64,2.09-2.5-2,4.82.27,10,4.33-4.32-4.25,7.25.28,10.73c0,.79-2.67.79-2.67,0l.5-14.43Z" style="fill:#fff;opacity:0.8"></path></g><g id="pine"><path d="M176,226.33a1.38,1.38,0,0,0-2.6,0c-3.62,10-8.58,35.63-7.6,39.94,2.78,1.71,15.11,2,17.8,0C184.56,262,179.59,236.33,176,226.33Z" style="fill:#7CB88A"></path><path d="M170.06,251l3.73,5.29.39-11.41-2-6.82,2.09,4.65.42-12.22.47,17.64,2.1-2.51-2,4.82.26,10,4.34-4.32-4.26,7.25.29,10.73c0,.79-2.67.79-2.67,0l.5-14.43Z" style="fill:#7CB88A"></path><path d="M170.06,251l3.73,5.29.39-11.41-2-6.82,2.09,4.65.42-12.22.47,17.64,2.1-2.51-2,4.82.26,10,4.34-4.32-4.26,7.25.29,10.73c0,.79-2.67.79-2.67,0l.5-14.43Z" style="fill:#fff;opacity:0.8"></path></g><g id="pine"><path d="M247,233.58a1.39,1.39,0,0,0-2.61,0c-3.61,10-8.57,35.63-7.59,39.94,2.77,1.71,15.1,2,17.79,0C255.56,269.21,250.6,243.58,247,233.58Z" style="fill:#7CB88A"></path><path d="M246.34,262.07l3.75-7.07-3.82,4.68-.59-21.92-.45,13.34-2.68-3.86,2.59,6.27L244.68,267l-5.09-4.69,5,6.66-.43,14.72c0,.79,2.68.79,2.68,0l-.52-21.64Z" style="fill:#7CB88A"></path><path d="M246.34,262.07l3.75-7.07-3.82,4.68-.59-21.92-.45,13.34-2.68-3.86,2.59,6.27L244.68,267l-5.09-4.69,5,6.66-.43,14.72c0,.79,2.68.79,2.68,0l-.52-21.64Z" style="fill:#fff;opacity:0.8"></path></g><g id="pine"><path d="M287.2,227a1.38,1.38,0,0,1,2.6,0c3.62,10,8.58,35.63,7.6,39.93-2.78,1.71-15.11,2-17.8,0C278.62,262.6,283.59,237,287.2,227Z" style="fill:#7CB88A"></path><path d="M287.85,255.46l-3.75-7.07,3.81,4.68.59-21.92.46,13.34,2.67-3.86L289,246.9l.47,13.51,5.09-4.7-5,6.66.43,12.41c0,.78-2.67.78-2.67,0l.52-19.32Z" style="fill:#7CB88A"></path><path d="M287.85,255.46l-3.75-7.07,3.81,4.68.59-21.92.46,13.34,2.67-3.86L289,246.9l.47,13.51,5.09-4.7-5,6.66.43,12.41c0,.78-2.67.78-2.67,0l.52-19.32Z" style="fill:#fff;opacity:0.8"></path></g></g></g><g id="Rain"><g id="rain"><path id="Cloud" d="M250.45,51.66a8.18,8.18,0,0,0-2.71-.5c-.88-.07-1.16-.24-1.33-.43a6.48,6.48,0,0,0-7.78-2.3,5,5,0,0,0-5.87-3.32c.1-2.74-3.39-5.67-6.53-6.34s-5.64-.37-7.35,1.6c-1.84-3.59-9-4.6-12.95-2.7-2.24,1.09-4.14,2.22-5.07,4.27A8.61,8.61,0,0,0,200,46a7.18,7.18,0,0,0-6.59-.92c-2.19.85-2.35,2.49-2.46,4.17a7.62,7.62,0,0,0-4-.07c-1.38.41-2.18,1.49-2,2.37-1.09-.06-3.69.82-3.39,2s3.3,1.16,4.41,1.12a19.7,19.7,0,0,0,3.1-.49,4.91,4.91,0,0,0,1.62.31c1.89,0,2.69-.82,3-1.53.92,1.95,4.21,3.42,6.53,4,4.37,1.12,10.55.44,13.24-2.83a4.88,4.88,0,0,0,1.3,1.59,7.6,7.6,0,0,0,4,1.63c1.8.17,6.61.4,8-2.45,1,1.9,5.25,2.76,8.51,2.3A13.57,13.57,0,0,0,239,56.11a22.38,22.38,0,0,0,2.1-1.25,1.74,1.74,0,0,1,1.78-.13,10.67,10.67,0,0,0,7.12,0C251.78,54,252.16,52.44,250.45,51.66Z" style="fill:#ebebeb"></path><path id="cloud" d="M204.08,44.38a8,8,0,0,0-2.69-.5c-.87-.07-1.15-.24-1.31-.43a6.43,6.43,0,0,0-7.72-2.28,4.93,4.93,0,0,0-5.81-3.29c.09-2.71-3.37-5.62-6.48-6.28s-5.58-.37-7.28,1.59c-1.83-3.56-9-4.56-12.83-2.68-2.23,1.09-4.11,2.2-5,4.23a8.47,8.47,0,0,0-.84,4,7.14,7.14,0,0,0-6.53-.91c-2.17.84-2.34,2.48-2.44,4.14a7.51,7.51,0,0,0-4-.07c-1.37.4-2.16,1.48-2,2.34-1.08-.06-3.66.82-3.36,2s3.27,1.15,4.37,1.11a20.82,20.82,0,0,0,3.08-.48,4.8,4.8,0,0,0,1.6.3c1.87,0,2.66-.82,3-1.51.92,1.92,4.17,3.39,6.47,4,4.33,1.11,10.46.43,13.13-2.81a4.71,4.71,0,0,0,1.29,1.58,7.43,7.43,0,0,0,4,1.62c1.78.16,6.55.39,7.9-2.43,1,1.88,5.2,2.73,8.43,2.27a13.33,13.33,0,0,0,3.62-1.09,20.81,20.81,0,0,0,2.08-1.25,1.74,1.74,0,0,1,1.77-.12,10.56,10.56,0,0,0,7.06,0C205.4,46.66,205.78,45.15,204.08,44.38Z" style="fill:#e0e0e0"></path><path id="cloud" d="M40.78,68.56a7.94,7.94,0,0,1,2.6-.48c.84-.06,1.1-.23,1.26-.41a6.19,6.19,0,0,1,7.44-2.2,4.76,4.76,0,0,1,5.61-3.17c-.09-2.61,3.25-5.42,6.25-6.06s5.38-.36,7,1.53c1.76-3.43,8.65-4.39,12.38-2.58,2.14,1,4,2.12,4.85,4.08a8.28,8.28,0,0,1,.8,3.91,6.87,6.87,0,0,1,6.31-.88c2.09.81,2.25,2.38,2.35,4a7.34,7.34,0,0,1,3.81-.07c1.32.39,2.08,1.42,1.89,2.26,1.05-.06,3.53.79,3.25,1.89s-3.16,1.11-4.22,1.07a19.41,19.41,0,0,1-3-.47,4.48,4.48,0,0,1-1.54.3c-1.81,0-2.57-.79-2.86-1.46-.88,1.85-4,3.27-6.24,3.83-4.17,1.07-10.08.42-12.66-2.7a4.57,4.57,0,0,1-1.24,1.52A7.17,7.17,0,0,1,71,74c-1.72.16-6.32.38-7.62-2.34-.92,1.81-5,2.63-8.13,2.19a12.73,12.73,0,0,1-3.49-1.05,22.71,22.71,0,0,1-2-1.2,1.66,1.66,0,0,0-1.71-.12,10.17,10.17,0,0,1-6.8,0C39.51,70.76,39.15,69.3,40.78,68.56Z" style="fill:#ebebeb"></path><path d="M142.11,54.63a.32.32,0,0,0,.16,0,.37.37,0,0,0,.34-.22l1-2.28a.37.37,0,1,0-.68-.31l-1,2.28A.36.36,0,0,0,142.11,54.63Z" style="fill:#e0e0e0"></path><path d="M137.57,64.67a.4.4,0,0,0,.15,0,.37.37,0,0,0,.34-.22l2.28-5a.38.38,0,0,0-.69-.3l-2.27,5A.38.38,0,0,0,137.57,64.67Z" style="fill:#e0e0e0"></path><path d="M135.79,69.5a.38.38,0,1,0-.69-.31L133.36,73l.66.37Z" style="fill:#e0e0e0"></path><path d="M152.14,57.37l.15,0a.38.38,0,0,0,.35-.22l1-2.28a.38.38,0,0,0-.69-.31l-1,2.28A.39.39,0,0,0,152.14,57.37Z" style="fill:#e0e0e0"></path><path d="M147.59,67.4a.41.41,0,0,0,.16,0,.37.37,0,0,0,.34-.22l2.27-5a.37.37,0,1,0-.68-.31l-2.28,5A.37.37,0,0,0,147.59,67.4Z" style="fill:#e0e0e0"></path><path d="M143,77.44a.45.45,0,0,0,.16,0,.37.37,0,0,0,.34-.22l2.27-5a.36.36,0,0,0-.18-.49.37.37,0,0,0-.5.18l-2.27,5A.37.37,0,0,0,143,77.44Z" style="fill:#e0e0e0"></path><path d="M163.36,57.47a.4.4,0,0,0,.15,0,.37.37,0,0,0,.34-.22l1-2.28a.38.38,0,0,0-.69-.31l-1,2.28A.39.39,0,0,0,163.36,57.47Z" style="fill:#e0e0e0"></path><path d="M154.26,77.54a.41.41,0,0,0,.16,0,.37.37,0,0,0,.34-.22l2.27-5a.36.36,0,0,0-.19-.49.37.37,0,0,0-.49.18l-2.28,5A.39.39,0,0,0,154.26,77.54Z" style="fill:#e0e0e0"></path><path d="M158.81,67.5a.28.28,0,0,0,.15,0,.4.4,0,0,0,.35-.22l2.27-5a.39.39,0,0,0-.19-.5.37.37,0,0,0-.49.19l-2.28,5A.37.37,0,0,0,158.81,67.5Z" style="fill:#e0e0e0"></path><path d="M175.21,56.17a.41.41,0,0,0,.16,0,.38.38,0,0,0,.34-.22l1-2.28a.38.38,0,0,0-.69-.31l-1,2.28A.39.39,0,0,0,175.21,56.17Z" style="fill:#e0e0e0"></path><path d="M170.66,66.2a.45.45,0,0,0,.16,0,.37.37,0,0,0,.34-.22l2.27-5a.38.38,0,0,0-.18-.5.39.39,0,0,0-.5.19l-2.27,5A.36.36,0,0,0,170.66,66.2Z" style="fill:#e0e0e0"></path><path d="M163.65,80.76l-2.27,5a.37.37,0,0,0,.19.49.4.4,0,0,0,.15,0,.36.36,0,0,0,.34-.22l2.28-5a.38.38,0,0,0-.69-.31Z" style="fill:#e0e0e0"></path><path d="M166.12,76.24a.4.4,0,0,0,.15,0,.37.37,0,0,0,.34-.22l2.28-5a.38.38,0,0,0-.69-.31l-2.27,5A.38.38,0,0,0,166.12,76.24Z" style="fill:#e0e0e0"></path><path d="M184.07,61.46a.32.32,0,0,0,.16,0,.37.37,0,0,0,.34-.22l1-2.28a.37.37,0,1,0-.68-.31l-1,2.28A.37.37,0,0,0,184.07,61.46Z" style="fill:#e0e0e0"></path><path d="M175,81.53a.28.28,0,0,0,.15,0,.36.36,0,0,0,.34-.22l2.28-5a.38.38,0,1,0-.69-.31l-2.27,5A.37.37,0,0,0,175,81.53Z" style="fill:#e0e0e0"></path><path d="M179.53,71.5a.4.4,0,0,0,.15,0,.37.37,0,0,0,.34-.22l2.28-5a.38.38,0,0,0-.69-.3l-2.27,5A.38.38,0,0,0,179.53,71.5Z" style="fill:#e0e0e0"></path><path d="M170.43,91.57a.41.41,0,0,0,.16,0,.38.38,0,0,0,.34-.22l2.27-5a.37.37,0,0,0-.19-.5.37.37,0,0,0-.49.18l-2.28,5A.39.39,0,0,0,170.43,91.57Z" style="fill:#e0e0e0"></path><path d="M194.59,63.06a.32.32,0,0,0,.16,0,.37.37,0,0,0,.34-.22l1-2.28a.38.38,0,0,0-.19-.5.37.37,0,0,0-.49.19l-1,2.28A.36.36,0,0,0,194.59,63.06Z" style="fill:#e0e0e0"></path><path d="M190.05,73.1a.4.4,0,0,0,.15,0,.37.37,0,0,0,.34-.22l2.28-5a.38.38,0,0,0-.69-.3l-2.27,5A.38.38,0,0,0,190.05,73.1Z" style="fill:#e0e0e0"></path><path d="M185.5,83.13a.28.28,0,0,0,.15,0A.36.36,0,0,0,186,83l2.28-5a.38.38,0,1,0-.69-.31l-2.27,5A.37.37,0,0,0,185.5,83.13Z" style="fill:#e0e0e0"></path><path d="M181,93.17l.15,0a.38.38,0,0,0,.35-.22l2.27-5a.38.38,0,0,0-.19-.5.36.36,0,0,0-.49.19l-2.28,5A.39.39,0,0,0,181,93.17Z" style="fill:#e0e0e0"></path><path d="M205.86,63.06a.28.28,0,0,0,.15,0,.37.37,0,0,0,.34-.22l1-2.28a.38.38,0,1,0-.69-.31l-1,2.28A.36.36,0,0,0,205.86,63.06Z" style="fill:#e0e0e0"></path><path d="M201.31,73.1a.4.4,0,0,0,.15,0,.38.38,0,0,0,.35-.22l2.27-5a.37.37,0,0,0-.19-.49.36.36,0,0,0-.49.19l-2.28,5A.39.39,0,0,0,201.31,73.1Z" style="fill:#e0e0e0"></path><path d="M196.76,83.13a.29.29,0,0,0,.16,0,.37.37,0,0,0,.34-.22l2.27-5a.37.37,0,1,0-.68-.31l-2.28,5A.37.37,0,0,0,196.76,83.13Z" style="fill:#e0e0e0"></path><path d="M187.67,103.2a.28.28,0,0,0,.15,0,.37.37,0,0,0,.34-.22l2.28-5a.38.38,0,1,0-.69-.31l-2.27,5A.36.36,0,0,0,187.67,103.2Z" style="fill:#e0e0e0"></path><path d="M192.21,93.17a.45.45,0,0,0,.16,0,.37.37,0,0,0,.34-.22L195,88a.37.37,0,0,0-.18-.5.38.38,0,0,0-.5.19l-2.27,5A.37.37,0,0,0,192.21,93.17Z" style="fill:#e0e0e0"></path><path d="M216.54,64.38a.32.32,0,0,0,.16,0,.37.37,0,0,0,.34-.22l1-2.28a.37.37,0,1,0-.68-.31l-1,2.28A.36.36,0,0,0,216.54,64.38Z" style="fill:#e0e0e0"></path><path d="M212,74.42a.4.4,0,0,0,.15,0,.37.37,0,0,0,.34-.22l2.27-5a.36.36,0,0,0-.18-.49.38.38,0,0,0-.5.19l-2.27,5A.38.38,0,0,0,212,74.42Z" style="fill:#e0e0e0"></path><path d="M202.9,94.49a.4.4,0,0,0,.15,0,.38.38,0,0,0,.35-.22l2.27-5a.38.38,0,0,0-.19-.5A.37.37,0,0,0,205,89l-2.28,5A.39.39,0,0,0,202.9,94.49Z" style="fill:#e0e0e0"></path><path d="M207.45,84.45a.28.28,0,0,0,.15,0,.37.37,0,0,0,.34-.22l2.28-5a.38.38,0,1,0-.69-.31l-2.27,5A.37.37,0,0,0,207.45,84.45Z" style="fill:#e0e0e0"></path><path d="M198.35,104.52a.29.29,0,0,0,.16,0,.39.39,0,0,0,.34-.22l2.27-5a.37.37,0,1,0-.68-.31l-2.28,5A.37.37,0,0,0,198.35,104.52Z" style="fill:#e0e0e0"></path><path d="M228.06,63.82a.45.45,0,0,0,.16,0,.37.37,0,0,0,.34-.22l1-2.28a.37.37,0,0,0-.19-.49.37.37,0,0,0-.49.19l-1,2.27A.37.37,0,0,0,228.06,63.82Z" style="fill:#e0e0e0"></path><path d="M216.51,88.41l-2.28,5a.37.37,0,0,0,.19.49.28.28,0,0,0,.15,0,.38.38,0,0,0,.35-.22l2.27-5a.39.39,0,0,0-.19-.5A.37.37,0,0,0,216.51,88.41Z" style="fill:#e0e0e0"></path><path d="M219,83.89a.4.4,0,0,0,.15,0,.37.37,0,0,0,.34-.22l2.28-5a.38.38,0,0,0-.69-.3l-2.27,5A.38.38,0,0,0,219,83.89Z" style="fill:#e0e0e0"></path><path d="M223.51,73.85a.32.32,0,0,0,.16,0,.37.37,0,0,0,.34-.22l2.27-5a.37.37,0,0,0-.18-.5.39.39,0,0,0-.5.19l-2.27,5A.37.37,0,0,0,223.51,73.85Z" style="fill:#e0e0e0"></path><path d="M212,98.44l-2.28,5a.39.39,0,0,0,.19.5.41.41,0,0,0,.16,0,.38.38,0,0,0,.34-.22l2.27-5a.37.37,0,0,0-.18-.49A.37.37,0,0,0,212,98.44Z" style="fill:#e0e0e0"></path><path d="M241.38,59.3a.37.37,0,0,0-.5.18l-1,2.28a.37.37,0,0,0,.18.5.45.45,0,0,0,.16,0,.37.37,0,0,0,.34-.22l1-2.28A.37.37,0,0,0,241.38,59.3Z" style="fill:#e0e0e0"></path><path d="M224.61,97.19a.36.36,0,0,0-.18-.49.38.38,0,0,0-.5.18l-1.69,3.74,1.1-.62Z" style="fill:#e0e0e0"></path><path d="M228.48,86.85l-2.28,5a.37.37,0,0,0,.19.49.29.29,0,0,0,.16,0,.39.39,0,0,0,.34-.22l2.27-5a.37.37,0,1,0-.68-.31Z" style="fill:#e0e0e0"></path><path d="M238.07,66.59a.39.39,0,0,0-.5.19l-2.27,5a.36.36,0,0,0,.19.49.28.28,0,0,0,.15,0,.39.39,0,0,0,.34-.22l2.28-5A.39.39,0,0,0,238.07,66.59Z" style="fill:#e0e0e0"></path><path d="M230.94,82.33a.4.4,0,0,0,.15,0,.36.36,0,0,0,.34-.22l2.28-5a.37.37,0,0,0-.19-.49.38.38,0,0,0-.5.18l-2.27,5A.39.39,0,0,0,230.94,82.33Z" style="fill:#e0e0e0"></path></g></g><g id="Clouds"><path id="cloud" d="M353.23,107.3a7.29,7.29,0,0,1,2.45-.45c.8-.06,1.05-.22,1.2-.39a5.85,5.85,0,0,1,7-2.08,4.49,4.49,0,0,1,5.3-3c-.08-2.47,3.07-5.13,5.91-5.73s5.09-.34,6.64,1.45c1.66-3.24,8.17-4.16,11.7-2.44,2,1,3.74,2,4.58,3.86a7.65,7.65,0,0,1,.77,3.69,6.49,6.49,0,0,1,5.95-.83c2,.76,2.13,2.25,2.23,3.77a6.84,6.84,0,0,1,3.6-.06c1.24.37,2,1.34,1.79,2.13,1,0,3.34.75,3.07,1.79s-3,1-4,1a18.21,18.21,0,0,1-2.8-.44,4.56,4.56,0,0,1-1.46.28c-1.71,0-2.43-.75-2.71-1.38-.83,1.75-3.8,3.09-5.89,3.63-4,1-9.54.39-12-2.56a4.3,4.3,0,0,1-1.18,1.43,6.75,6.75,0,0,1-3.65,1.48c-1.62.15-6,.36-7.2-2.22-.86,1.72-4.74,2.5-7.68,2.08a12,12,0,0,1-3.3-1,17.32,17.32,0,0,1-1.9-1.13,1.57,1.57,0,0,0-1.62-.11,9.65,9.65,0,0,1-6.43,0C352,109.38,351.68,108,353.23,107.3Z" style="fill:#f5f5f5"></path><path id="cloud" d="M399,83.73a8.1,8.1,0,0,1,2.7-.49c.87-.07,1.14-.24,1.31-.43a6.41,6.41,0,0,1,7.71-2.28,4.94,4.94,0,0,1,5.82-3.29c-.1-2.71,3.37-5.62,6.48-6.29s5.58-.36,7.28,1.6c1.82-3.56,9-4.56,12.83-2.68,2.22,1.08,4.11,2.19,5,4.23a8.45,8.45,0,0,1,.84,4.05,7.11,7.11,0,0,1,6.53-.91c2.17.84,2.33,2.47,2.44,4.14a7.68,7.68,0,0,1,3.95-.08c1.37.41,2.15,1.48,2,2.35,1.08-.06,3.65.81,3.36,1.95-.34,1.29-3.28,1.16-4.38,1.12a20.76,20.76,0,0,1-3.07-.49,4.78,4.78,0,0,1-1.6.31c-1.87,0-2.67-.82-3-1.52-.91,1.93-4.16,3.39-6.46,4-4.33,1.11-10.46.44-13.13-2.8a4.91,4.91,0,0,1-1.29,1.57,7.5,7.5,0,0,1-4,1.62c-1.78.17-6.56.4-7.9-2.43-.95,1.88-5.2,2.74-8.43,2.28a13.22,13.22,0,0,1-3.62-1.09,22.89,22.89,0,0,1-2.08-1.25,1.72,1.72,0,0,0-1.77-.12,10.56,10.56,0,0,1-7.06,0C397.66,86,397.28,84.5,399,83.73Z" style="fill:#f5f5f5"></path><path id="cloud" d="M309,73.47a10.24,10.24,0,0,1,3.53-.65c1.15-.09,1.51-.32,1.73-.57a8.44,8.44,0,0,1,10.13-3,6.46,6.46,0,0,1,7.63-4.32c-.12-3.56,4.42-7.38,8.51-8.25,3.92-.84,7.33-.49,9.57,2.09,2.39-4.67,11.77-6,16.84-3.52,2.92,1.42,5.39,2.88,6.6,5.56a11.05,11.05,0,0,1,1.1,5.31c2-1.74,5.94-2.21,8.58-1.19,2.85,1.1,3.07,3.25,3.21,5.43a9.9,9.9,0,0,1,5.18-.09c1.8.53,2.83,1.94,2.58,3.08,1.42-.08,4.81,1.07,4.42,2.56-.44,1.69-4.3,1.52-5.74,1.46a26.33,26.33,0,0,1-4-.63,6.48,6.48,0,0,1-2.1.4c-2.46,0-3.5-1.07-3.9-2-1.2,2.53-5.47,4.45-8.49,5.23-5.69,1.45-13.73.57-17.23-3.68a6.35,6.35,0,0,1-1.7,2.06,9.8,9.8,0,0,1-5.26,2.13c-2.33.22-8.6.52-10.36-3.19-1.26,2.47-6.83,3.59-11.08,3A17.68,17.68,0,0,1,324,79.26a28.53,28.53,0,0,1-2.73-1.63,2.25,2.25,0,0,0-2.33-.16c-2.91.87-6.29,1.23-9.26,0C307.3,76.46,306.8,74.48,309,73.47Z" style="fill:#f5f5f5"></path></g><g id="Lines"><path d="M443,286.17a.63.63,0,0,1-.41-.15l-2.27-1.91a6.76,6.76,0,0,1,.15-10.47l2-1.58a5.48,5.48,0,0,0,.13-8.49l-2.27-1.91a6.76,6.76,0,0,1,.15-10.47l2-1.59a5.45,5.45,0,0,0,2.08-4.21,5.51,5.51,0,0,0-1.95-4.28l-2.27-1.91a6.76,6.76,0,0,1,.15-10.47l2-1.58a5.48,5.48,0,0,0,.13-8.49l-2.27-1.91a6.76,6.76,0,0,1,.15-10.47l2-1.58a5.48,5.48,0,0,0,.13-8.49l-2.27-1.91a6.76,6.76,0,0,1,.15-10.47l2-1.59a5.48,5.48,0,0,0,.13-8.49l-2.27-1.91a6.76,6.76,0,0,1,.15-10.47l2-1.58a5.48,5.48,0,0,0,.13-8.49l-2.27-1.91a6.76,6.76,0,0,1,.15-10.47l2-1.59a5.45,5.45,0,0,0,2.08-4.21,5.51,5.51,0,0,0-1.95-4.28l-2.27-1.91a6.76,6.76,0,0,1,.15-10.47l2-1.58a5.48,5.48,0,0,0,.13-8.49l-2.27-1.91A6.76,6.76,0,0,1,440.46,94a.64.64,0,0,1,.8,1,5.48,5.48,0,0,0-.13,8.49l2.27,1.91a6.76,6.76,0,0,1-.15,10.47l-2,1.59a5.48,5.48,0,0,0-.13,8.49l2.27,1.91a6.76,6.76,0,0,1-.15,10.47l-2,1.58a5.48,5.48,0,0,0-.13,8.49l2.27,1.91a6.76,6.76,0,0,1-.15,10.47l-2,1.58a5.48,5.48,0,0,0-.13,8.49l2.27,1.91a6.76,6.76,0,0,1-.15,10.47l-2,1.59a5.48,5.48,0,0,0-.13,8.49l2.27,1.91a6.76,6.76,0,0,1-.15,10.47l-2,1.58a5.48,5.48,0,0,0-.13,8.49l2.27,1.91a6.76,6.76,0,0,1-.15,10.47l-2,1.59a5.45,5.45,0,0,0-2.08,4.21,5.51,5.51,0,0,0,1.95,4.28l2.27,1.9a6.77,6.77,0,0,1-.15,10.48l-2,1.58a5.48,5.48,0,0,0-.13,8.49l2.27,1.91a6.76,6.76,0,0,1-.15,10.47l-2,1.58a5.48,5.48,0,0,0-.13,8.49L443.4,285a.64.64,0,0,1,.08.9A.65.65,0,0,1,443,286.17Z" style="fill:#f5f5f5"></path><path d="M430.82,286.17a.65.65,0,0,1-.41-.15l-2.27-1.91a6.77,6.77,0,0,1,.15-10.47l2-1.58a5.49,5.49,0,0,0,.12-8.49l-2.27-1.91a6.77,6.77,0,0,1,.15-10.47l2-1.59a5.44,5.44,0,0,0,2.07-4.21,5.51,5.51,0,0,0-1.95-4.28l-2.27-1.91a6.77,6.77,0,0,1,.15-10.47l2-1.58a5.49,5.49,0,0,0,.12-8.49l-2.27-1.91a6.77,6.77,0,0,1,.15-10.47l2-1.58a5.49,5.49,0,0,0,.12-8.49l-2.27-1.91a6.77,6.77,0,0,1,.15-10.47l2-1.59a5.49,5.49,0,0,0,.12-8.49l-2.27-1.91a6.77,6.77,0,0,1,.15-10.47l2-1.58a5.49,5.49,0,0,0,.12-8.49l-2.27-1.91a6.77,6.77,0,0,1,.15-10.47l2-1.59a5.44,5.44,0,0,0,2.07-4.21,5.51,5.51,0,0,0-1.95-4.28l-2.27-1.91a6.77,6.77,0,0,1,.15-10.47l2-1.58a5.49,5.49,0,0,0,.12-8.49l-2.27-1.91A6.77,6.77,0,0,1,428.29,94a.64.64,0,0,1,.8,1,5.47,5.47,0,0,0-.12,8.49l2.26,1.91a6.76,6.76,0,0,1-.15,10.47l-2,1.59A5.47,5.47,0,0,0,429,126l2.26,1.91a6.76,6.76,0,0,1-.15,10.47l-2,1.58a5.47,5.47,0,0,0-.12,8.49l2.26,1.91a6.76,6.76,0,0,1-.15,10.47l-2,1.58a5.47,5.47,0,0,0-.12,8.49l2.26,1.91a6.76,6.76,0,0,1-.15,10.47l-2,1.59a5.47,5.47,0,0,0-.12,8.49l2.26,1.91a6.76,6.76,0,0,1-.15,10.47l-2,1.58a5.47,5.47,0,0,0-.12,8.49l2.26,1.91a6.76,6.76,0,0,1-.15,10.47l-2,1.59a5.47,5.47,0,0,0-.12,8.49l2.26,1.9a6.77,6.77,0,0,1-.15,10.48l-2,1.58a5.47,5.47,0,0,0-.12,8.49l2.26,1.91a6.76,6.76,0,0,1-.15,10.47l-2,1.58a5.47,5.47,0,0,0-.12,8.49l2.26,1.91a.64.64,0,0,1,.08.9A.65.65,0,0,1,430.82,286.17Z" style="fill:#f5f5f5"></path><path d="M418.65,286.17a.65.65,0,0,1-.41-.15L416,284.11a6.77,6.77,0,0,1,.15-10.47l2-1.58a5.49,5.49,0,0,0,.12-8.49L416,261.66a6.77,6.77,0,0,1,.15-10.47l2-1.59a5.49,5.49,0,0,0,.12-8.49L416,239.2a6.77,6.77,0,0,1,.15-10.47l2-1.58a5.49,5.49,0,0,0,.12-8.49L416,216.75a6.77,6.77,0,0,1,.15-10.47l2-1.58a5.49,5.49,0,0,0,.12-8.49L416,194.3a6.77,6.77,0,0,1,.15-10.47l2-1.59a5.49,5.49,0,0,0,.12-8.49L416,171.84a6.77,6.77,0,0,1,.15-10.47l2-1.58a5.49,5.49,0,0,0,.12-8.49L416,149.39a6.77,6.77,0,0,1,.15-10.47l2-1.59a5.49,5.49,0,0,0,.12-8.49L416,126.93a6.77,6.77,0,0,1,.15-10.47l2-1.58a5.49,5.49,0,0,0,.12-8.49L416,104.48A6.77,6.77,0,0,1,416.12,94a.65.65,0,0,1,.9.1.64.64,0,0,1-.1.9,5.48,5.48,0,0,0-2.07,4.22,5.41,5.41,0,0,0,1.95,4.27l2.26,1.91a6.76,6.76,0,0,1-.15,10.47l-2,1.59a5.49,5.49,0,0,0-.12,8.49l2.26,1.91a6.76,6.76,0,0,1-.15,10.47l-2,1.58a5.49,5.49,0,0,0-.12,8.49l2.26,1.91a6.76,6.76,0,0,1-.15,10.47l-2,1.58a5.48,5.48,0,0,0-2.07,4.22,5.41,5.41,0,0,0,1.95,4.27l2.26,1.91a6.76,6.76,0,0,1-.15,10.47l-2,1.59a5.49,5.49,0,0,0-.12,8.49l2.26,1.91a6.76,6.76,0,0,1-.15,10.47l-2,1.58a5.48,5.48,0,0,0-2.07,4.22,5.41,5.41,0,0,0,1.95,4.27l2.26,1.91a6.76,6.76,0,0,1-.15,10.47l-2,1.59a5.49,5.49,0,0,0-.12,8.49l2.26,1.9a6.77,6.77,0,0,1-.15,10.48l-2,1.58a5.49,5.49,0,0,0-.12,8.49l2.26,1.91a6.76,6.76,0,0,1-.15,10.47l-2,1.58a5.48,5.48,0,0,0-2.07,4.22,5.41,5.41,0,0,0,1.95,4.27l2.26,1.91a.64.64,0,0,1,.08.9A.65.65,0,0,1,418.65,286.17Z" style="fill:#f5f5f5"></path><path d="M406.48,286.17a.65.65,0,0,1-.41-.15l-2.26-1.91a6.76,6.76,0,0,1,.15-10.47l2-1.58a5.48,5.48,0,0,0,2.07-4.22,5.41,5.41,0,0,0-1.95-4.27l-2.26-1.91a6.76,6.76,0,0,1,.15-10.47l2-1.59a5.49,5.49,0,0,0,.12-8.49l-2.26-1.91a6.76,6.76,0,0,1,.15-10.47l2-1.58a5.49,5.49,0,0,0,.12-8.49l-2.26-1.91a6.76,6.76,0,0,1,.15-10.47l2-1.58a5.48,5.48,0,0,0,2.07-4.22,5.41,5.41,0,0,0-1.95-4.27l-2.26-1.91a6.76,6.76,0,0,1,.15-10.47l2-1.59a5.49,5.49,0,0,0,.12-8.49l-2.26-1.91a6.76,6.76,0,0,1,.15-10.47l2-1.58a5.48,5.48,0,0,0,2.07-4.22,5.41,5.41,0,0,0-1.95-4.27l-2.26-1.91a6.76,6.76,0,0,1,.15-10.47l2-1.59a5.49,5.49,0,0,0,.12-8.49l-2.26-1.91a6.76,6.76,0,0,1,.15-10.47.64.64,0,1,1,.79,1,5.49,5.49,0,0,0-.12,8.49l2.27,1.91a6.77,6.77,0,0,1-.15,10.47l-2,1.58a5.49,5.49,0,0,0-.12,8.49l2.27,1.91a6.77,6.77,0,0,1-.15,10.47l-2,1.58a5.49,5.49,0,0,0-.12,8.49l2.27,1.91a6.77,6.77,0,0,1-.15,10.47l-2,1.59a5.49,5.49,0,0,0-.12,8.49l2.27,1.91a6.77,6.77,0,0,1-.15,10.47l-2,1.58a5.49,5.49,0,0,0-.12,8.49l2.27,1.91a6.77,6.77,0,0,1-.15,10.47l-2,1.59a5.49,5.49,0,0,0-.12,8.49l2.27,1.9a6.79,6.79,0,0,1-.15,10.48l-2,1.58a5.49,5.49,0,0,0-.12,8.49l2.27,1.91a6.77,6.77,0,0,1-.15,10.47l-2,1.58a5.49,5.49,0,0,0-.12,8.49L406.9,285a.64.64,0,0,1,.07.9A.62.62,0,0,1,406.48,286.17Z" style="fill:#f5f5f5"></path><path d="M394.32,286.17a.66.66,0,0,1-.42-.15l-2.26-1.91a6.76,6.76,0,0,1,.15-10.47l2-1.58a5.47,5.47,0,0,0,.12-8.49l-2.26-1.91a6.76,6.76,0,0,1,.15-10.47l2-1.59a5.47,5.47,0,0,0,.12-8.49l-2.26-1.91a6.76,6.76,0,0,1,.15-10.47l2-1.58a5.47,5.47,0,0,0,.12-8.49l-2.26-1.91a6.76,6.76,0,0,1,.15-10.47l2-1.58a5.47,5.47,0,0,0,.12-8.49l-2.26-1.91a6.76,6.76,0,0,1,.15-10.47l2-1.59a5.47,5.47,0,0,0,.12-8.49l-2.26-1.91a6.76,6.76,0,0,1,.15-10.47l2-1.58a5.47,5.47,0,0,0,.12-8.49l-2.26-1.91a6.76,6.76,0,0,1,.15-10.47l2-1.59a5.47,5.47,0,0,0,.12-8.49l-2.26-1.91a6.76,6.76,0,0,1,.15-10.47.65.65,0,0,1,.9.11.64.64,0,0,1-.11.9,5.44,5.44,0,0,0-2.07,4.21,5.51,5.51,0,0,0,1.95,4.28l2.27,1.91a6.77,6.77,0,0,1-.15,10.47l-2,1.58a5.49,5.49,0,0,0-.12,8.49l2.27,1.91a6.77,6.77,0,0,1-.15,10.47l-2,1.58a5.49,5.49,0,0,0-.12,8.49l2.27,1.91a6.77,6.77,0,0,1-.15,10.47l-2,1.59a5.49,5.49,0,0,0-.12,8.49l2.27,1.91a6.77,6.77,0,0,1-.15,10.47l-2,1.58a5.49,5.49,0,0,0-.12,8.49l2.27,1.91a6.77,6.77,0,0,1-.15,10.47l-2,1.59a5.44,5.44,0,0,0-2.07,4.21,5.51,5.51,0,0,0,1.95,4.28l2.27,1.9a6.79,6.79,0,0,1-.15,10.48l-2,1.58a5.49,5.49,0,0,0-.12,8.49l2.27,1.91a6.77,6.77,0,0,1-.15,10.47l-2,1.58a5.49,5.49,0,0,0-.12,8.49l2.27,1.91a.64.64,0,0,1-.41,1.13Z" style="fill:#f5f5f5"></path><path d="M382.15,286.17a.63.63,0,0,1-.41-.15l-2.27-1.91a6.76,6.76,0,0,1,.15-10.47l2-1.58a5.48,5.48,0,0,0,.13-8.49l-2.27-1.91a6.76,6.76,0,0,1,.15-10.47l2-1.59a5.45,5.45,0,0,0,2.08-4.21,5.51,5.51,0,0,0-1.95-4.28l-2.27-1.91a6.76,6.76,0,0,1,.15-10.47l2-1.58a5.48,5.48,0,0,0,.13-8.49l-2.27-1.91a6.76,6.76,0,0,1,.15-10.47l2-1.58a5.48,5.48,0,0,0,.13-8.49l-2.27-1.91a6.76,6.76,0,0,1,.15-10.47l2-1.59a5.48,5.48,0,0,0,.13-8.49l-2.27-1.91a6.76,6.76,0,0,1,.15-10.47l2-1.58a5.48,5.48,0,0,0,.13-8.49l-2.27-1.91a6.76,6.76,0,0,1,.15-10.47l2-1.59a5.45,5.45,0,0,0,2.08-4.21,5.51,5.51,0,0,0-1.95-4.28l-2.27-1.91a6.76,6.76,0,0,1,.15-10.47.65.65,0,0,1,.9.11.64.64,0,0,1-.11.9,5.49,5.49,0,0,0-.12,8.49l2.27,1.91a6.76,6.76,0,0,1-.15,10.47l-2,1.58a5.49,5.49,0,0,0-.12,8.49l2.27,1.91a6.76,6.76,0,0,1-.15,10.47l-2,1.58a5.49,5.49,0,0,0-.12,8.49l2.27,1.91A6.79,6.79,0,0,1,385,178a6.72,6.72,0,0,1-2.56,5.2l-2,1.59a5.49,5.49,0,0,0-.12,8.49l2.27,1.91a6.76,6.76,0,0,1-.15,10.47l-2,1.58a5.49,5.49,0,0,0-.12,8.49l2.27,1.91a6.76,6.76,0,0,1-.15,10.47l-2,1.59a5.49,5.49,0,0,0-.12,8.49l2.27,1.9a6.77,6.77,0,0,1-.15,10.48l-2,1.58a5.49,5.49,0,0,0-.12,8.49l2.27,1.91a6.76,6.76,0,0,1-.15,10.47l-2,1.58a5.49,5.49,0,0,0-.12,8.49l2.27,1.91a.64.64,0,0,1-.41,1.13Z" style="fill:#f5f5f5"></path></g><g id="Circle"><g id="circle"><path d="M250.09,313c-1.89,0-3.79,0-5.66-.13a1.12,1.12,0,0,1-1.07-1.17,1.14,1.14,0,0,1,1.18-1.08c3.71.17,7.53.17,11.24,0a1.13,1.13,0,1,1,.1,2.25C254,312.93,252,313,250.09,313Zm-16.9-1.18-.16,0c-3.77-.53-7.55-1.25-11.24-2.14a1.12,1.12,0,0,1-.83-1.36,1.11,1.11,0,0,1,1.35-.83c3.63.87,7.34,1.58,11,2.1a1.13,1.13,0,0,1-.16,2.25Zm33.93,0a1.13,1.13,0,0,1-.16-2.25c3.71-.52,7.42-1.24,11-2.12a1.13,1.13,0,0,1,.53,2.19c-3.69.9-7.48,1.62-11.25,2.16Zm-56-5.3a1.24,1.24,0,0,1-.37-.06c-3.6-1.24-7.17-2.67-10.63-4.25a1.13,1.13,0,0,1,.93-2.05c3.4,1.55,6.91,2.95,10.44,4.17a1.12,1.12,0,0,1-.37,2.19Zm78,0a1.13,1.13,0,0,1-.37-2.19c3.52-1.22,7-2.63,10.43-4.18a1.12,1.12,0,1,1,.93,2c-3.46,1.59-7,3-10.62,4.27A1.24,1.24,0,0,1,289.15,306.43Zm-98.61-9.37a1.15,1.15,0,0,1-.56-.15c-3.3-1.91-6.54-4-9.64-6.19a1.13,1.13,0,0,1,1.31-1.84c3,2.17,6.22,4.21,9.45,6.08a1.12,1.12,0,0,1-.56,2.1ZM309.75,297a1.13,1.13,0,0,1-.56-2.1c3.22-1.87,6.4-3.92,9.45-6.09a1.12,1.12,0,1,1,1.3,1.83c-3.1,2.22-6.34,4.3-9.62,6.2A1.07,1.07,0,0,1,309.75,297ZM172.08,283.92a1.09,1.09,0,0,1-.74-.28c-2.88-2.49-5.67-5.15-8.29-7.9a1.12,1.12,0,1,1,1.62-1.55c2.58,2.7,5.32,5.3,8.14,7.75a1.13,1.13,0,0,1,.12,1.59A1.15,1.15,0,0,1,172.08,283.92Zm156.12-.09a1.13,1.13,0,0,1-.74-2c2.82-2.45,5.56-5.06,8.14-7.76a1.12,1.12,0,0,1,1.59,0,1.14,1.14,0,0,1,0,1.6c-2.63,2.75-5.42,5.41-8.29,7.9A1.1,1.1,0,0,1,328.2,283.83Zm-171.78-16.3a1.12,1.12,0,0,1-.88-.43c-2.36-3-4.6-6.12-6.66-9.32a1.13,1.13,0,0,1,.33-1.56,1.14,1.14,0,0,1,1.56.34c2,3.14,4.22,6.21,6.53,9.14a1.13,1.13,0,0,1-.88,1.83Zm187.42-.11a1.12,1.12,0,0,1-.88-1.82c2.31-2.94,4.5-6,6.52-9.15a1.12,1.12,0,0,1,1.56-.34,1.14,1.14,0,0,1,.34,1.56c-2.06,3.2-4.3,6.33-6.65,9.32A1.13,1.13,0,0,1,343.84,267.42ZM144.13,248.48a1.12,1.12,0,0,1-1-.61c-1.75-3.38-3.36-6.88-4.77-10.41a1.13,1.13,0,0,1,2.09-.84c1.39,3.46,3,6.9,4.68,10.22a1.11,1.11,0,0,1-.48,1.51A1.08,1.08,0,0,1,144.13,248.48Zm212-.12a1.08,1.08,0,0,1-.52-.13,1.11,1.11,0,0,1-.48-1.51c1.71-3.33,3.29-6.77,4.67-10.22a1.12,1.12,0,1,1,2.09.83c-1.41,3.53-3,7-4.76,10.42A1.12,1.12,0,0,1,356.11,248.36ZM135.68,227.45a1.14,1.14,0,0,1-1.08-.81c-1.07-3.64-2-7.39-2.7-11.13a1.12,1.12,0,1,1,2.21-.42c.71,3.67,1.6,7.34,2.65,10.92a1.11,1.11,0,0,1-.76,1.39A.86.86,0,0,1,135.68,227.45Zm228.85-.13a1.14,1.14,0,0,1-1.08-1.44c1.05-3.58,1.94-7.25,2.64-10.93a1.12,1.12,0,0,1,1.32-.89,1.14,1.14,0,0,1,.9,1.32c-.72,3.74-1.63,7.49-2.7,11.13A1.12,1.12,0,0,1,364.53,227.32ZM131.39,205.2a1.14,1.14,0,0,1-1.12-1c-.36-3.77-.54-7.62-.55-11.44a1.13,1.13,0,0,1,1.13-1.12h0a1.13,1.13,0,0,1,1.13,1.12c0,3.75.18,7.53.53,11.23a1.11,1.11,0,0,1-1,1.22Zm237.41-.14h-.11a1.12,1.12,0,0,1-1-1.23c.35-3.7.52-7.47.52-11.22v-.27a1.13,1.13,0,1,1,2.26,0v.27c0,3.82-.18,7.66-.54,11.43A1.13,1.13,0,0,1,368.8,205.06ZM131.37,182.54h-.11a1.11,1.11,0,0,1-1-1.22c.35-3.79.89-7.61,1.6-11.34a1.12,1.12,0,1,1,2.21.42c-.69,3.66-1.22,7.41-1.57,11.13A1.14,1.14,0,0,1,131.37,182.54Zm237.4-.41a1.13,1.13,0,0,1-1.12-1c-.36-3.72-.9-7.46-1.61-11.12a1.12,1.12,0,1,1,2.21-.42c.73,3.72,1.28,7.54,1.64,11.33a1.12,1.12,0,0,1-1,1.23ZM135.61,160.27a1.17,1.17,0,0,1-.32,0,1.12,1.12,0,0,1-.76-1.4c1.06-3.65,2.32-7.29,3.73-10.82a1.12,1.12,0,1,1,2.09.83c-1.39,3.47-2.62,7-3.66,10.62A1.11,1.11,0,0,1,135.61,160.27Zm228.85-.38a1.12,1.12,0,0,1-1.08-.81c-1.06-3.58-2.3-7.15-3.7-10.61a1.13,1.13,0,0,1,2.09-.85c1.42,3.53,2.69,7.17,3.77,10.82a1.14,1.14,0,0,1-.76,1.4A1.25,1.25,0,0,1,364.46,159.89ZM144,139.23a1.08,1.08,0,0,1-.52-.13,1.12,1.12,0,0,1-.48-1.52c1.74-3.38,3.66-6.71,5.72-9.92a1.12,1.12,0,1,1,1.89,1.22c-2,3.14-3.9,6.42-5.61,9.74A1.14,1.14,0,0,1,144,139.23Zm212-.36a1.12,1.12,0,0,1-1-.61c-1.72-3.31-3.62-6.58-5.65-9.72a1.12,1.12,0,0,1,.33-1.55,1.13,1.13,0,0,1,1.56.33c2.07,3.2,4,6.53,5.75,9.9a1.12,1.12,0,0,1-.48,1.52A1,1,0,0,1,356,138.87ZM156.25,120.15a1.12,1.12,0,0,1-.88-1.82c2.35-3,4.87-5.91,7.49-8.66a1.12,1.12,0,1,1,1.63,1.55c-2.57,2.7-5.05,5.56-7.35,8.5A1.13,1.13,0,0,1,156.25,120.15Zm187.43-.31a1.13,1.13,0,0,1-.89-.43c-2.31-2.93-4.79-5.78-7.38-8.48a1.13,1.13,0,0,1,1.63-1.56c2.63,2.75,5.16,5.66,7.52,8.64a1.13,1.13,0,0,1-.19,1.58A1.07,1.07,0,0,1,343.68,119.84Zm-171.8-16.11a1.1,1.1,0,0,1-.85-.39,1.13,1.13,0,0,1,.11-1.59c2.86-2.49,5.89-4.88,9-7.1a1.14,1.14,0,0,1,1.58.26,1.12,1.12,0,0,1-.27,1.57c-3,2.18-6,4.52-8.82,7A1.13,1.13,0,0,1,171.88,103.73ZM328,103.46a1.17,1.17,0,0,1-.74-.27c-2.82-2.44-5.8-4.78-8.84-6.94a1.12,1.12,0,1,1,1.3-1.83c3.11,2.2,6.14,4.58,9,7.06a1.13,1.13,0,0,1,.11,1.59A1.1,1.1,0,0,1,328,103.46ZM190.31,90.54a1.13,1.13,0,0,1-.57-2.1c3.29-1.91,6.71-3.69,10.17-5.27a1.12,1.12,0,0,1,.94,2c-3.39,1.56-6.75,3.3-10,5.18A1.12,1.12,0,0,1,190.31,90.54Zm119.21-.21a1,1,0,0,1-.56-.15c-3.24-1.86-6.6-3.59-10-5.13a1.15,1.15,0,0,1-.56-1.5,1.13,1.13,0,0,1,1.5-.55c3.46,1.57,6.89,3.33,10.18,5.23a1.12,1.12,0,0,1,.41,1.54A1.1,1.1,0,0,1,309.52,90.33ZM210.9,81.08a1.12,1.12,0,0,1-1.06-.76,1.14,1.14,0,0,1,.69-1.43c3.6-1.25,7.29-2.34,11-3.24a1.13,1.13,0,0,1,.53,2.19c-3.63.88-7.25,2-10.78,3.18A1.15,1.15,0,0,1,210.9,81.08Zm78-.13a1.24,1.24,0,0,1-.37-.06c-3.53-1.22-7.15-2.28-10.79-3.15a1.12,1.12,0,0,1-.83-1.35,1.14,1.14,0,0,1,1.36-.84c3.7.89,7.4,2,11,3.21a1.13,1.13,0,0,1-.37,2.19Zm-56-5.23a1.13,1.13,0,0,1-.16-2.24c3.75-.54,7.58-.91,11.4-1.1a1.14,1.14,0,0,1,1.18,1.07,1.13,1.13,0,0,1-1.07,1.18c-3.74.19-7.51.55-11.19,1.08Zm33.94-.06h-.16c-3.69-.52-7.46-.87-11.19-1a1.12,1.12,0,0,1-1.08-1.17,1.16,1.16,0,0,1,1.18-1.08c3.8.18,7.64.53,11.4,1.06a1.13,1.13,0,0,1-.15,2.24Z" style="fill:#7CB88A"></path></g><g id="circle" style="opacity:0.30000000000000004"><path d="M250.09,313c-1.89,0-3.79,0-5.66-.13a1.12,1.12,0,0,1-1.07-1.17,1.14,1.14,0,0,1,1.18-1.08c3.71.17,7.53.17,11.24,0a1.13,1.13,0,1,1,.1,2.25C254,312.93,252,313,250.09,313Zm-16.9-1.18-.16,0c-3.77-.53-7.55-1.25-11.24-2.14a1.12,1.12,0,0,1-.83-1.36,1.11,1.11,0,0,1,1.35-.83c3.63.87,7.34,1.58,11,2.1a1.13,1.13,0,0,1-.16,2.25Zm33.93,0a1.13,1.13,0,0,1-.16-2.25c3.71-.52,7.42-1.24,11-2.12a1.13,1.13,0,0,1,.53,2.19c-3.69.9-7.48,1.62-11.25,2.16Zm-56-5.3a1.24,1.24,0,0,1-.37-.06c-3.6-1.24-7.17-2.67-10.63-4.25a1.13,1.13,0,0,1,.93-2.05c3.4,1.55,6.91,2.95,10.44,4.17a1.12,1.12,0,0,1-.37,2.19Zm78,0a1.13,1.13,0,0,1-.37-2.19c3.52-1.22,7-2.63,10.43-4.18a1.12,1.12,0,1,1,.93,2c-3.46,1.59-7,3-10.62,4.27A1.24,1.24,0,0,1,289.15,306.43Zm-98.61-9.37a1.15,1.15,0,0,1-.56-.15c-3.3-1.91-6.54-4-9.64-6.19a1.13,1.13,0,0,1,1.31-1.84c3,2.17,6.22,4.21,9.45,6.08a1.12,1.12,0,0,1-.56,2.1ZM309.75,297a1.13,1.13,0,0,1-.56-2.1c3.22-1.87,6.4-3.92,9.45-6.09a1.12,1.12,0,1,1,1.3,1.83c-3.1,2.22-6.34,4.3-9.62,6.2A1.07,1.07,0,0,1,309.75,297ZM172.08,283.92a1.09,1.09,0,0,1-.74-.28c-2.88-2.49-5.67-5.15-8.29-7.9a1.12,1.12,0,1,1,1.62-1.55c2.58,2.7,5.32,5.3,8.14,7.75a1.13,1.13,0,0,1,.12,1.59A1.15,1.15,0,0,1,172.08,283.92Zm156.12-.09a1.13,1.13,0,0,1-.74-2c2.82-2.45,5.56-5.06,8.14-7.76a1.12,1.12,0,0,1,1.59,0,1.14,1.14,0,0,1,0,1.6c-2.63,2.75-5.42,5.41-8.29,7.9A1.1,1.1,0,0,1,328.2,283.83Zm-171.78-16.3a1.12,1.12,0,0,1-.88-.43c-2.36-3-4.6-6.12-6.66-9.32a1.13,1.13,0,0,1,.33-1.56,1.14,1.14,0,0,1,1.56.34c2,3.14,4.22,6.21,6.53,9.14a1.13,1.13,0,0,1-.88,1.83Zm187.42-.11a1.12,1.12,0,0,1-.88-1.82c2.31-2.94,4.5-6,6.52-9.15a1.12,1.12,0,0,1,1.56-.34,1.14,1.14,0,0,1,.34,1.56c-2.06,3.2-4.3,6.33-6.65,9.32A1.13,1.13,0,0,1,343.84,267.42ZM144.13,248.48a1.12,1.12,0,0,1-1-.61c-1.75-3.38-3.36-6.88-4.77-10.41a1.13,1.13,0,0,1,2.09-.84c1.39,3.46,3,6.9,4.68,10.22a1.11,1.11,0,0,1-.48,1.51A1.08,1.08,0,0,1,144.13,248.48Zm212-.12a1.08,1.08,0,0,1-.52-.13,1.11,1.11,0,0,1-.48-1.51c1.71-3.33,3.29-6.77,4.67-10.22a1.12,1.12,0,1,1,2.09.83c-1.41,3.53-3,7-4.76,10.42A1.12,1.12,0,0,1,356.11,248.36ZM135.68,227.45a1.14,1.14,0,0,1-1.08-.81c-1.07-3.64-2-7.39-2.7-11.13a1.12,1.12,0,1,1,2.21-.42c.71,3.67,1.6,7.34,2.65,10.92a1.11,1.11,0,0,1-.76,1.39A.86.86,0,0,1,135.68,227.45Zm228.85-.13a1.14,1.14,0,0,1-1.08-1.44c1.05-3.58,1.94-7.25,2.64-10.93a1.12,1.12,0,0,1,1.32-.89,1.14,1.14,0,0,1,.9,1.32c-.72,3.74-1.63,7.49-2.7,11.13A1.12,1.12,0,0,1,364.53,227.32ZM131.39,205.2a1.14,1.14,0,0,1-1.12-1c-.36-3.77-.54-7.62-.55-11.44a1.13,1.13,0,0,1,1.13-1.12h0a1.13,1.13,0,0,1,1.13,1.12c0,3.75.18,7.53.53,11.23a1.11,1.11,0,0,1-1,1.22Zm237.41-.14h-.11a1.12,1.12,0,0,1-1-1.23c.35-3.7.52-7.47.52-11.22v-.27a1.13,1.13,0,1,1,2.26,0v.27c0,3.82-.18,7.66-.54,11.43A1.13,1.13,0,0,1,368.8,205.06ZM131.37,182.54h-.11a1.11,1.11,0,0,1-1-1.22c.35-3.79.89-7.61,1.6-11.34a1.12,1.12,0,1,1,2.21.42c-.69,3.66-1.22,7.41-1.57,11.13A1.14,1.14,0,0,1,131.37,182.54Zm237.4-.41a1.13,1.13,0,0,1-1.12-1c-.36-3.72-.9-7.46-1.61-11.12a1.12,1.12,0,1,1,2.21-.42c.73,3.72,1.28,7.54,1.64,11.33a1.12,1.12,0,0,1-1,1.23ZM135.61,160.27a1.17,1.17,0,0,1-.32,0,1.12,1.12,0,0,1-.76-1.4c1.06-3.65,2.32-7.29,3.73-10.82a1.12,1.12,0,1,1,2.09.83c-1.39,3.47-2.62,7-3.66,10.62A1.11,1.11,0,0,1,135.61,160.27Zm228.85-.38a1.12,1.12,0,0,1-1.08-.81c-1.06-3.58-2.3-7.15-3.7-10.61a1.13,1.13,0,0,1,2.09-.85c1.42,3.53,2.69,7.17,3.77,10.82a1.14,1.14,0,0,1-.76,1.4A1.25,1.25,0,0,1,364.46,159.89ZM144,139.23a1.08,1.08,0,0,1-.52-.13,1.12,1.12,0,0,1-.48-1.52c1.74-3.38,3.66-6.71,5.72-9.92a1.12,1.12,0,1,1,1.89,1.22c-2,3.14-3.9,6.42-5.61,9.74A1.14,1.14,0,0,1,144,139.23Zm212-.36a1.12,1.12,0,0,1-1-.61c-1.72-3.31-3.62-6.58-5.65-9.72a1.12,1.12,0,0,1,.33-1.55,1.13,1.13,0,0,1,1.56.33c2.07,3.2,4,6.53,5.75,9.9a1.12,1.12,0,0,1-.48,1.52A1,1,0,0,1,356,138.87ZM156.25,120.15a1.12,1.12,0,0,1-.88-1.82c2.35-3,4.87-5.91,7.49-8.66a1.12,1.12,0,1,1,1.63,1.55c-2.57,2.7-5.05,5.56-7.35,8.5A1.13,1.13,0,0,1,156.25,120.15Zm187.43-.31a1.13,1.13,0,0,1-.89-.43c-2.31-2.93-4.79-5.78-7.38-8.48a1.13,1.13,0,0,1,1.63-1.56c2.63,2.75,5.16,5.66,7.52,8.64a1.13,1.13,0,0,1-.19,1.58A1.07,1.07,0,0,1,343.68,119.84Zm-171.8-16.11a1.1,1.1,0,0,1-.85-.39,1.13,1.13,0,0,1,.11-1.59c2.86-2.49,5.89-4.88,9-7.1a1.14,1.14,0,0,1,1.58.26,1.12,1.12,0,0,1-.27,1.57c-3,2.18-6,4.52-8.82,7A1.13,1.13,0,0,1,171.88,103.73ZM328,103.46a1.17,1.17,0,0,1-.74-.27c-2.82-2.44-5.8-4.78-8.84-6.94a1.12,1.12,0,1,1,1.3-1.83c3.11,2.2,6.14,4.58,9,7.06a1.13,1.13,0,0,1,.11,1.59A1.1,1.1,0,0,1,328,103.46ZM190.31,90.54a1.13,1.13,0,0,1-.57-2.1c3.29-1.91,6.71-3.69,10.17-5.27a1.12,1.12,0,0,1,.94,2c-3.39,1.56-6.75,3.3-10,5.18A1.12,1.12,0,0,1,190.31,90.54Zm119.21-.21a1,1,0,0,1-.56-.15c-3.24-1.86-6.6-3.59-10-5.13a1.15,1.15,0,0,1-.56-1.5,1.13,1.13,0,0,1,1.5-.55c3.46,1.57,6.89,3.33,10.18,5.23a1.12,1.12,0,0,1,.41,1.54A1.1,1.1,0,0,1,309.52,90.33ZM210.9,81.08a1.12,1.12,0,0,1-1.06-.76,1.14,1.14,0,0,1,.69-1.43c3.6-1.25,7.29-2.34,11-3.24a1.13,1.13,0,0,1,.53,2.19c-3.63.88-7.25,2-10.78,3.18A1.15,1.15,0,0,1,210.9,81.08Zm78-.13a1.24,1.24,0,0,1-.37-.06c-3.53-1.22-7.15-2.28-10.79-3.15a1.12,1.12,0,0,1-.83-1.35,1.14,1.14,0,0,1,1.36-.84c3.7.89,7.4,2,11,3.21a1.13,1.13,0,0,1-.37,2.19Zm-56-5.23a1.13,1.13,0,0,1-.16-2.24c3.75-.54,7.58-.91,11.4-1.1a1.14,1.14,0,0,1,1.18,1.07,1.13,1.13,0,0,1-1.07,1.18c-3.74.19-7.51.55-11.19,1.08Zm33.94-.06h-.16c-3.69-.52-7.46-.87-11.19-1a1.12,1.12,0,0,1-1.08-1.17,1.16,1.16,0,0,1,1.18-1.08c3.8.18,7.64.53,11.4,1.06a1.13,1.13,0,0,1-.15,2.24Z"></path></g><path d="M135.61,160.27a1.17,1.17,0,0,1-.32,0,1.12,1.12,0,0,1-.76-1.4c1.06-3.65,2.32-7.29,3.73-10.82a1.12,1.12,0,1,1,2.09.83c-1.39,3.47-2.62,7-3.66,10.62A1.11,1.11,0,0,1,135.61,160.27Z" style="fill:#e0e0e0"></path><path d="M144,139.23a1.08,1.08,0,0,1-.52-.13,1.12,1.12,0,0,1-.48-1.52c1.74-3.38,3.66-6.71,5.72-9.92a1.12,1.12,0,1,1,1.89,1.22c-2,3.14-3.9,6.42-5.61,9.74A1.14,1.14,0,0,1,144,139.23Z" style="fill:#e0e0e0"></path><path d="M156.25,120.15a1.12,1.12,0,0,1-.88-1.82c2.35-3,4.87-5.91,7.49-8.66a1.12,1.12,0,1,1,1.63,1.55c-2.57,2.7-5.05,5.56-7.35,8.5A1.13,1.13,0,0,1,156.25,120.15Z" style="fill:#e0e0e0"></path><path d="M135.61,160.27a1.17,1.17,0,0,1-.32,0,1.12,1.12,0,0,1-.76-1.4c1.06-3.65,2.32-7.29,3.73-10.82a1.12,1.12,0,1,1,2.09.83c-1.39,3.47-2.62,7-3.66,10.62A1.11,1.11,0,0,1,135.61,160.27Z" style="fill:#e0e0e0"></path><path d="M144,139.23a1.08,1.08,0,0,1-.52-.13,1.12,1.12,0,0,1-.48-1.52c1.74-3.38,3.66-6.71,5.72-9.92a1.12,1.12,0,1,1,1.89,1.22c-2,3.14-3.9,6.42-5.61,9.74A1.14,1.14,0,0,1,144,139.23Z" style="fill:#e0e0e0"></path><path d="M156.25,120.15a1.12,1.12,0,0,1-.88-1.82c2.35-3,4.87-5.91,7.49-8.66a1.12,1.12,0,1,1,1.63,1.55c-2.57,2.7-5.05,5.56-7.35,8.5A1.13,1.13,0,0,1,156.25,120.15Z" style="fill:#e0e0e0"></path></g><g id="Texts"><g id="Text"><rect x="333.32" y="124.63" width="76.51" height="16.08" style="fill:#e0e0e0"></rect><path d="M337.16,131.82c0,.32,0,.62,0,.9s0,.57,0,.89a2.16,2.16,0,0,0,.53,1.43,1.87,1.87,0,0,0,1.46.55,2.43,2.43,0,0,0,.86-.13,1.72,1.72,0,0,0,.58-.33,1.41,1.41,0,0,0,.35-.46,2.76,2.76,0,0,0,.18-.53.26.26,0,0,1,.11-.17.29.29,0,0,1,.17-.06h.49a.24.24,0,0,1,.23.23,2.37,2.37,0,0,1-.18.77,2.51,2.51,0,0,1-.53.78,2.79,2.79,0,0,1-.91.61,3.69,3.69,0,0,1-2.59,0,3,3,0,0,1-.93-.6,2.67,2.67,0,0,1-.6-.91,3.33,3.33,0,0,1-.23-1.16q0-.94,0-1.89a3.36,3.36,0,0,1,.23-1.15,2.58,2.58,0,0,1,.6-.91,2.66,2.66,0,0,1,.93-.6,3.19,3.19,0,0,1,1.24-.22,3.4,3.4,0,0,1,1.35.24,2.81,2.81,0,0,1,.91.62,2.38,2.38,0,0,1,.71,1.54.22.22,0,0,1-.07.17.24.24,0,0,1-.16.07h-.49a.29.29,0,0,1-.17-.06.28.28,0,0,1-.11-.18,2.68,2.68,0,0,0-.18-.52,1.45,1.45,0,0,0-.35-.47A2.15,2.15,0,0,0,340,130a2.7,2.7,0,0,0-.86-.12,1.9,1.9,0,0,0-1.46.54A2.2,2.2,0,0,0,337.16,131.82Z" style="fill:#455a64"></path><path d="M345.93,130.8a2.73,2.73,0,0,1,1,.18,2.51,2.51,0,0,1,.77.48,2.29,2.29,0,0,1,.5.75,3.37,3.37,0,0,1,.23,1,1.62,1.62,0,0,1,0,.23V134a1.28,1.28,0,0,1,0,.21,3.54,3.54,0,0,1-.23,1,2.46,2.46,0,0,1-.5.75,2.51,2.51,0,0,1-.77.48,3,3,0,0,1-2,0,2.51,2.51,0,0,1-.77-.48,2.29,2.29,0,0,1-.5-.75,2.94,2.94,0,0,1-.23-1s0-.13,0-.21v-.56c0-.09,0-.16,0-.23a3.07,3.07,0,0,1,.23-1,2.29,2.29,0,0,1,.5-.75,2.51,2.51,0,0,1,.77-.48A2.73,2.73,0,0,1,345.93,130.8Zm1.55,3.32a2.89,2.89,0,0,0,0-.44,3,3,0,0,0,0-.45,2.29,2.29,0,0,0-.14-.6,1.66,1.66,0,0,0-.29-.48,1.56,1.56,0,0,0-.47-.32,1.84,1.84,0,0,0-.65-.11,1.8,1.8,0,0,0-.65.11,1.56,1.56,0,0,0-.47.32,1.66,1.66,0,0,0-.29.48,2,2,0,0,0-.14.6,3,3,0,0,0,0,.45,2.89,2.89,0,0,0,0,.44,2,2,0,0,0,.14.6,1.49,1.49,0,0,0,.29.47,1.27,1.27,0,0,0,.47.32,1.6,1.6,0,0,0,.65.12,1.64,1.64,0,0,0,.65-.12,1.27,1.27,0,0,0,.47-.32,1.49,1.49,0,0,0,.29-.47A2.39,2.39,0,0,0,347.48,134.12Z" style="fill:#455a64"></path><path d="M355,136.15a.31.31,0,0,1-.29.29h-.39a.29.29,0,0,1-.21-.09.28.28,0,0,1-.08-.2v-2.81a1.7,1.7,0,0,0-.39-1.22,1.47,1.47,0,0,0-1.1-.4,1.46,1.46,0,0,0-1.08.4,1.66,1.66,0,0,0-.41,1.22v2.81a.28.28,0,0,1-.08.2.29.29,0,0,1-.21.09h-.39a.27.27,0,0,1-.2-.09.24.24,0,0,1-.08-.2v-5a.28.28,0,0,1,.08-.21.3.3,0,0,1,.2-.08h.39a.27.27,0,0,1,.29.29v.33a2,2,0,0,1,.6-.5,2.15,2.15,0,0,1,1.05-.23,2.6,2.6,0,0,1,.93.17,2,2,0,0,1,.72.47,2.06,2.06,0,0,1,.48.75,2.82,2.82,0,0,1,.17,1Z" style="fill:#455a64"></path><path d="M358.93,130.8A2.16,2.16,0,0,1,360,131a1.87,1.87,0,0,1,.59.5v-2.35a.29.29,0,0,1,.09-.21.28.28,0,0,1,.2-.08h.39a.28.28,0,0,1,.2.08.29.29,0,0,1,.09.21v7a.31.31,0,0,1-.29.29h-.39a.31.31,0,0,1-.29-.29v-.33a1.92,1.92,0,0,1-.6.51,2.24,2.24,0,0,1-1.05.22,2.41,2.41,0,0,1-.93-.18,2.38,2.38,0,0,1-.75-.51,2.56,2.56,0,0,1-.51-.79,3.17,3.17,0,0,1-.22-1.06c0-.1,0-.22,0-.34s0-.24,0-.35a3.11,3.11,0,0,1,.22-1,2.45,2.45,0,0,1,.51-.79,2.35,2.35,0,0,1,.75-.5A2.41,2.41,0,0,1,358.93,130.8Zm1.65,3.33c0-.11,0-.25,0-.42s0-.31,0-.42a1.64,1.64,0,0,0-.45-1.16,1.46,1.46,0,0,0-1.09-.41,1.45,1.45,0,0,0-1.11.44,1.94,1.94,0,0,0-.44,1.22,5.8,5.8,0,0,0,0,.59,1.88,1.88,0,0,0,.44,1.21,1.42,1.42,0,0,0,1.11.45,1.49,1.49,0,0,0,1.08-.4A1.53,1.53,0,0,0,360.58,134.13Z" style="fill:#455a64"></path><path d="M363.15,133.14a2.78,2.78,0,0,1,.24-.91,2.59,2.59,0,0,1,.5-.75,2.15,2.15,0,0,1,.74-.5,2.45,2.45,0,0,1,1-.18,2.73,2.73,0,0,1,1,.19,2,2,0,0,1,.78.54,2.44,2.44,0,0,1,.49.85,3.5,3.5,0,0,1,.17,1.11v.29a.25.25,0,0,1-.09.2.27.27,0,0,1-.2.09H364.1v.06a1.42,1.42,0,0,0,1.49,1.5,1.87,1.87,0,0,0,.88-.16,2,2,0,0,0,.47-.37.64.64,0,0,1,.15-.12.44.44,0,0,1,.19,0h.32a.29.29,0,0,1,.21.09.2.2,0,0,1,.08.2,1.33,1.33,0,0,1-.62.84,2.53,2.53,0,0,1-.7.33,3.22,3.22,0,0,1-1,.14,2.49,2.49,0,0,1-1-.19,2.34,2.34,0,0,1-1.24-1.28,2.94,2.94,0,0,1-.24-1A5.35,5.35,0,0,1,363.15,133.14Zm1,0h3v0a1.35,1.35,0,0,0-.41-1,1.52,1.52,0,0,0-1.09-.39,1.48,1.48,0,0,0-.57.1,1.33,1.33,0,0,0-.47.29,1.23,1.23,0,0,0-.32.45,1.54,1.54,0,0,0-.13.58Z" style="fill:#455a64"></path><path d="M374.51,136.15a.28.28,0,0,1-.08.2.29.29,0,0,1-.21.09h-.39a.31.31,0,0,1-.29-.29v-2.81a1.7,1.7,0,0,0-.39-1.22,1.67,1.67,0,0,0-2.17,0,1.62,1.62,0,0,0-.41,1.22v2.81a.25.25,0,0,1-.09.2.27.27,0,0,1-.2.09h-.39a.29.29,0,0,1-.21-.09.28.28,0,0,1-.08-.2v-5a.27.27,0,0,1,.29-.29h.39a.3.3,0,0,1,.2.08.29.29,0,0,1,.09.21v.33a1.81,1.81,0,0,1,.6-.5,2.08,2.08,0,0,1,1-.23,2.52,2.52,0,0,1,.93.17,2.08,2.08,0,0,1,.73.47,2,2,0,0,1,.47.75,2.82,2.82,0,0,1,.17,1Z" style="fill:#455a64"></path><path d="M379.47,134.91a.49.49,0,0,0-.12-.34.87.87,0,0,0-.33-.23,4.9,4.9,0,0,0-.57-.18l-.8-.18a2.06,2.06,0,0,1-1.21-.6,1.51,1.51,0,0,1-.35-1,1.59,1.59,0,0,1,.13-.61,1.45,1.45,0,0,1,.39-.51,1.78,1.78,0,0,1,.64-.35,3.07,3.07,0,0,1,.91-.13,3.14,3.14,0,0,1,.91.12,2.61,2.61,0,0,1,.65.3,1.36,1.36,0,0,1,.4.39.66.66,0,0,1,.15.4.24.24,0,0,1-.08.2.32.32,0,0,1-.2.08h-.35l-.16,0a.25.25,0,0,1-.16-.12,1.09,1.09,0,0,0-.41-.3,1.89,1.89,0,0,0-.75-.12,1.58,1.58,0,0,0-.8.18.56.56,0,0,0-.3.5.53.53,0,0,0,.09.32.59.59,0,0,0,.27.21,2.16,2.16,0,0,0,.51.17l.78.18a3.42,3.42,0,0,1,.82.27,2.05,2.05,0,0,1,.53.37,1.42,1.42,0,0,1,.29.46,1.84,1.84,0,0,1,.08.53,1.31,1.31,0,0,1-.15.61,1.58,1.58,0,0,1-.44.53,2.87,2.87,0,0,1-.7.36,2.93,2.93,0,0,1-.93.14,3.26,3.26,0,0,1-.93-.13,3.14,3.14,0,0,1-.69-.32,1.73,1.73,0,0,1-.44-.4.76.76,0,0,1-.16-.41.24.24,0,0,1,.07-.2.29.29,0,0,1,.21-.09h.39l.15,0a.28.28,0,0,1,.16.12,1,1,0,0,0,.46.36,1.92,1.92,0,0,0,.78.13,2.31,2.31,0,0,0,.46,0,2.19,2.19,0,0,0,.41-.15,1.08,1.08,0,0,0,.28-.23A.48.48,0,0,0,379.47,134.91Z" style="fill:#455a64"></path><path d="M381.57,135.05a1.52,1.52,0,0,1,.64-1.29,2.51,2.51,0,0,1,.69-.36,5.56,5.56,0,0,1,.85-.22l1.5-.24v-.14a1,1,0,0,0-.36-.81,1.4,1.4,0,0,0-.88-.27,1.16,1.16,0,0,0-.71.17,1.73,1.73,0,0,0-.41.4.31.31,0,0,1-.14.12.56.56,0,0,1-.2,0h-.32a.32.32,0,0,1-.21-.08.28.28,0,0,1-.08-.21,1.09,1.09,0,0,1,.19-.47,1.58,1.58,0,0,1,.45-.44,2.38,2.38,0,0,1,.64-.31,2.3,2.3,0,0,1,.79-.13,2.8,2.8,0,0,1,.88.14,2.05,2.05,0,0,1,.71.4,1.88,1.88,0,0,1,.45.67,2.29,2.29,0,0,1,.17.9v3.24a.31.31,0,0,1-.29.29h-.39a.29.29,0,0,1-.21-.09.28.28,0,0,1-.08-.2v-.43a.9.9,0,0,1-.3.35,1.72,1.72,0,0,1-.46.26,2.41,2.41,0,0,1-.54.16,2.61,2.61,0,0,1-.53.06,2.29,2.29,0,0,1-.76-.12,1.71,1.71,0,0,1-.58-.32,1.34,1.34,0,0,1-.38-.47A1.31,1.31,0,0,1,381.57,135.05Zm2,.58a2,2,0,0,0,.7-.12,1.59,1.59,0,0,0,.55-.32,1.37,1.37,0,0,0,.35-.5,1.61,1.61,0,0,0,.12-.63v-.27L384,134a3.14,3.14,0,0,0-1.06.34.7.7,0,0,0-.39.61.64.64,0,0,0,0,.23.72.72,0,0,0,.17.23,1,1,0,0,0,.31.17A1.47,1.47,0,0,0,383.53,135.63Z" style="fill:#455a64"></path><path d="M389.42,134.58a1.58,1.58,0,0,0,0,.38.67.67,0,0,0,.13.3.64.64,0,0,0,.27.2,1.44,1.44,0,0,0,.45.06h.56a.29.29,0,0,1,.21.09.3.3,0,0,1,.08.2v.34a.28.28,0,0,1-.08.2.29.29,0,0,1-.21.09h-.67a1.7,1.7,0,0,1-1.34-.48,2.08,2.08,0,0,1-.41-1.38v-2.76h-.79a.27.27,0,0,1-.28-.28v-.34a.28.28,0,0,1,.08-.21.32.32,0,0,1,.2-.08h.79v-1.73a.29.29,0,0,1,.09-.21.28.28,0,0,1,.2-.08h.39a.28.28,0,0,1,.2.08.29.29,0,0,1,.09.21v1.73h1.35a.3.3,0,0,1,.2.08.29.29,0,0,1,.09.21v.34a.28.28,0,0,1-.09.2.26.26,0,0,1-.2.08h-1.35Z" style="fill:#455a64"></path><path d="M393.56,129.78a.24.24,0,0,1-.08.2.27.27,0,0,1-.2.09h-.61a.27.27,0,0,1-.2-.09.25.25,0,0,1-.09-.2v-.6a.29.29,0,0,1,.09-.21.3.3,0,0,1,.2-.08h.61a.3.3,0,0,1,.2.08.28.28,0,0,1,.08.21Zm-.1,6.37a.31.31,0,0,1-.29.29h-.39a.31.31,0,0,1-.29-.29v-5a.29.29,0,0,1,.09-.21.28.28,0,0,1,.2-.08h.39a.28.28,0,0,1,.2.08.29.29,0,0,1,.09.21Z" style="fill:#455a64"></path><path d="M397.58,130.8a2.74,2.74,0,0,1,1,.18,2.46,2.46,0,0,1,.76.48,2.49,2.49,0,0,1,.51.75,3.06,3.06,0,0,1,.22,1,1.62,1.62,0,0,1,0,.23V134a1.28,1.28,0,0,1,0,.21,3.21,3.21,0,0,1-.23,1,2.29,2.29,0,0,1-.5.75,2.46,2.46,0,0,1-.76.48,3,3,0,0,1-2.05,0,2.46,2.46,0,0,1-.76-.48,2.49,2.49,0,0,1-.51-.75,3.21,3.21,0,0,1-.23-1s0-.13,0-.21a2.62,2.62,0,0,1,0-.28,2.53,2.53,0,0,1,0-.28c0-.09,0-.16,0-.23a3.37,3.37,0,0,1,.23-1,2.49,2.49,0,0,1,.51-.75,2.46,2.46,0,0,1,.76-.48A2.73,2.73,0,0,1,397.58,130.8Zm1.56,3.32c0-.12,0-.27,0-.44s0-.33,0-.45a2.29,2.29,0,0,0-.14-.6,1.5,1.5,0,0,0-.3-.48,1.45,1.45,0,0,0-.47-.32,1.95,1.95,0,0,0-1.29,0,1.45,1.45,0,0,0-.47.32,1.5,1.5,0,0,0-.3.48,2.29,2.29,0,0,0-.14.6c0,.12,0,.28,0,.45s0,.32,0,.44a2.39,2.39,0,0,0,.14.6,1.35,1.35,0,0,0,.3.47,1.19,1.19,0,0,0,.47.32,1.59,1.59,0,0,0,.64.12,1.6,1.6,0,0,0,.65-.12,1.19,1.19,0,0,0,.47-.32,1.35,1.35,0,0,0,.3-.47A2.39,2.39,0,0,0,399.14,134.12Z" style="fill:#455a64"></path><path d="M406.63,136.15a.28.28,0,0,1-.08.2.28.28,0,0,1-.2.09H406a.27.27,0,0,1-.2-.09.25.25,0,0,1-.09-.2v-2.81a1.7,1.7,0,0,0-.39-1.22,1.67,1.67,0,0,0-2.17,0,1.62,1.62,0,0,0-.41,1.22v2.81a.31.31,0,0,1-.29.29H402a.31.31,0,0,1-.29-.29v-5a.29.29,0,0,1,.09-.21.28.28,0,0,1,.2-.08h.39a.28.28,0,0,1,.2.08.29.29,0,0,1,.09.21v.33a1.81,1.81,0,0,1,.6-.5,2.1,2.1,0,0,1,1-.23,2.51,2.51,0,0,1,.92.17,2,2,0,0,1,.73.47,2,2,0,0,1,.47.75,2.61,2.61,0,0,1,.17,1Z" style="fill:#455a64"></path><rect x="91.99" y="124.63" width="76.51" height="16.08" style="fill:#e0e0e0"></rect><path d="M100.69,129a3.51,3.51,0,0,1,1,.13,2.21,2.21,0,0,1,.81.41,1.93,1.93,0,0,1,.56.7,2.53,2.53,0,0,1,0,2,2,2,0,0,1-.56.72,2.25,2.25,0,0,1-.81.43,3.52,3.52,0,0,1-1,.14h-2v2.6a.28.28,0,0,1-.08.2.29.29,0,0,1-.21.09H98a.31.31,0,0,1-.29-.29v-6.87a.27.27,0,0,1,.09-.2A.24.24,0,0,1,98,129Zm-2,3.59h1.9a1.89,1.89,0,0,0,1.19-.33,1.21,1.21,0,0,0,.42-1,1.16,1.16,0,0,0-.42-1,2,2,0,0,0-1.19-.31h-1.9Z" style="fill:#455a64"></path><path d="M107.48,130.91a.28.28,0,0,1,.2.08.29.29,0,0,1,.09.21v.34a.28.28,0,0,1-.09.2.24.24,0,0,1-.2.08h-.61a1.09,1.09,0,0,0-1.23,1.23v3.1a.28.28,0,0,1-.08.2.28.28,0,0,1-.2.09H105a.27.27,0,0,1-.2-.09.24.24,0,0,1-.08-.2v-5a.28.28,0,0,1,.08-.21.3.3,0,0,1,.2-.08h.4a.32.32,0,0,1,.2.08.32.32,0,0,1,.08.21v.33a1.27,1.27,0,0,1,.51-.47,1.75,1.75,0,0,1,.78-.15Z" style="fill:#455a64"></path><path d="M108.59,133.14a2.77,2.77,0,0,1,.23-.91,2.81,2.81,0,0,1,.5-.75,2.25,2.25,0,0,1,.74-.5,2.49,2.49,0,0,1,1-.18,2.74,2.74,0,0,1,1,.19,2,2,0,0,1,.77.54,2.29,2.29,0,0,1,.49.85,3.5,3.5,0,0,1,.17,1.11v.29a.31.31,0,0,1-.29.29h-3.66v.06a1.49,1.49,0,0,0,.45,1.11,1.46,1.46,0,0,0,1,.39,1.87,1.87,0,0,0,.88-.16,1.83,1.83,0,0,0,.47-.37.64.64,0,0,1,.15-.12.5.5,0,0,1,.19,0H113a.29.29,0,0,1,.21.09.2.2,0,0,1,.08.2,1.13,1.13,0,0,1-.18.42,1.57,1.57,0,0,1-.43.42,2.68,2.68,0,0,1-.7.33,3.24,3.24,0,0,1-1,.14,2.4,2.4,0,0,1-1-.19,2.44,2.44,0,0,1-.74-.51,2.58,2.58,0,0,1-.51-.77,2.94,2.94,0,0,1-.23-1A4,4,0,0,1,108.59,133.14Zm.94,0h3v0a1.31,1.31,0,0,0-.41-1,1.5,1.5,0,0,0-1.09-.39,1.56,1.56,0,0,0-.57.1,1.33,1.33,0,0,0-.47.29,1.36,1.36,0,0,0-.32.45,1.54,1.54,0,0,0-.13.58Z" style="fill:#455a64"></path><path d="M115.74,134.05a2.11,2.11,0,0,0,.19.72,1.66,1.66,0,0,0,.35.49,1.3,1.3,0,0,0,.46.28,1.58,1.58,0,0,0,.52.09,1.82,1.82,0,0,0,.88-.19,1.27,1.27,0,0,0,.56-.64.65.65,0,0,1,.15-.23.34.34,0,0,1,.2-.06h.32a.29.29,0,0,1,.21.09.26.26,0,0,1,.08.2,1.48,1.48,0,0,1-.17.56,1.7,1.7,0,0,1-.46.56,2.55,2.55,0,0,1-.74.44,2.7,2.7,0,0,1-1,.19,2.56,2.56,0,0,1-1-.2,2.18,2.18,0,0,1-.77-.52,2.47,2.47,0,0,1-.49-.77,3,3,0,0,1-.19-1c0-.11,0-.25,0-.42a2.75,2.75,0,0,1,0-.43,3.35,3.35,0,0,1,.21-1,2.36,2.36,0,0,1,.49-.77,2.26,2.26,0,0,1,.75-.53,2.74,2.74,0,0,1,1-.19,2.71,2.71,0,0,1,1,.18,2.57,2.57,0,0,1,.74.45,1.7,1.7,0,0,1,.46.56,1.48,1.48,0,0,1,.17.56.26.26,0,0,1-.08.2.28.28,0,0,1-.21.08h-.32a.42.42,0,0,1-.2-.05.65.65,0,0,1-.15-.23,1.27,1.27,0,0,0-.56-.64,1.82,1.82,0,0,0-.88-.19,1.58,1.58,0,0,0-.52.09,1.25,1.25,0,0,0-.47.28,1.66,1.66,0,0,0-.35.49,2.11,2.11,0,0,0-.18.72A4.69,4.69,0,0,0,115.74,134.05Z" style="fill:#455a64"></path><path d="M122.27,129.78a.28.28,0,0,1-.08.2.28.28,0,0,1-.2.09h-.61a.31.31,0,0,1-.29-.29v-.6a.29.29,0,0,1,.09-.21.28.28,0,0,1,.2-.08H122a.32.32,0,0,1,.2.08.32.32,0,0,1,.08.21Zm-.1,6.37a.25.25,0,0,1-.09.2.27.27,0,0,1-.2.09h-.39a.29.29,0,0,1-.21-.09.28.28,0,0,1-.08-.2v-5a.27.27,0,0,1,.29-.29h.39a.3.3,0,0,1,.2.08.29.29,0,0,1,.09.21Z" style="fill:#455a64"></path><path d="M126.64,136.55a2.1,2.1,0,0,1-1-.23,2.21,2.21,0,0,1-.6-.5v2.35a.24.24,0,0,1-.08.2.28.28,0,0,1-.2.09h-.4a.28.28,0,0,1-.2-.09.28.28,0,0,1-.08-.2v-7a.32.32,0,0,1,.08-.21.32.32,0,0,1,.2-.08h.4a.32.32,0,0,1,.2.08.28.28,0,0,1,.08.21v.33a2.09,2.09,0,0,1,.61-.51,2.2,2.2,0,0,1,1-.22,2.34,2.34,0,0,1,.93.18,2.15,2.15,0,0,1,.75.5,2.44,2.44,0,0,1,.51.8,3.37,3.37,0,0,1,.23,1.05c0,.11,0,.23,0,.35s0,.24,0,.34a3.37,3.37,0,0,1-.23,1.06,2.39,2.39,0,0,1-.51.79,2.15,2.15,0,0,1-.75.5A2.34,2.34,0,0,1,126.64,136.55ZM125,133.22c0,.1,0,.24,0,.42s0,.31,0,.42a1.69,1.69,0,0,0,.46,1.16,1.5,1.5,0,0,0,1.09.41,1.41,1.41,0,0,0,1.1-.45,1.89,1.89,0,0,0,.45-1.21,5.8,5.8,0,0,0,0-.59,1.94,1.94,0,0,0-.45-1.22,1.44,1.44,0,0,0-1.1-.44,1.53,1.53,0,0,0-1.09.4A1.61,1.61,0,0,0,125,133.22Z" style="fill:#455a64"></path><path d="M131.73,129.78a.25.25,0,0,1-.09.2.27.27,0,0,1-.2.09h-.61a.27.27,0,0,1-.2-.09.24.24,0,0,1-.08-.2v-.6a.28.28,0,0,1,.08-.21.3.3,0,0,1,.2-.08h.61a.3.3,0,0,1,.2.08.29.29,0,0,1,.09.21Zm-.11,6.37a.31.31,0,0,1-.29.29h-.39a.31.31,0,0,1-.29-.29v-5a.29.29,0,0,1,.09-.21.28.28,0,0,1,.2-.08h.39a.28.28,0,0,1,.2.08.29.29,0,0,1,.09.21Z" style="fill:#455a64"></path><path d="M134.93,134.58a2.34,2.34,0,0,0,0,.38.83.83,0,0,0,.14.3.64.64,0,0,0,.27.2,1.36,1.36,0,0,0,.45.06h.56a.25.25,0,0,1,.2.09.27.27,0,0,1,.09.2v.34a.31.31,0,0,1-.29.29h-.67a1.7,1.7,0,0,1-1.34-.48,2.08,2.08,0,0,1-.41-1.38v-2.76h-.79a.26.26,0,0,1-.2-.08.28.28,0,0,1-.09-.2v-.34A.29.29,0,0,1,133,131a.3.3,0,0,1,.2-.08H134v-1.73a.27.27,0,0,1,.29-.29h.39a.3.3,0,0,1,.2.08.29.29,0,0,1,.09.21v1.73h1.35a.32.32,0,0,1,.2.08.32.32,0,0,1,.08.21v.34a.32.32,0,0,1-.08.2.27.27,0,0,1-.2.08h-1.35Z" style="fill:#455a64"></path><path d="M137.61,135.05a1.6,1.6,0,0,1,.16-.75,1.73,1.73,0,0,1,.47-.54,2.43,2.43,0,0,1,.7-.36,5.44,5.44,0,0,1,.84-.22l1.5-.24v-.14a1,1,0,0,0-.35-.81,1.45,1.45,0,0,0-.89-.27,1.18,1.18,0,0,0-.71.17,1.94,1.94,0,0,0-.41.4.31.31,0,0,1-.14.12.49.49,0,0,1-.2,0h-.32a.32.32,0,0,1-.2-.08.25.25,0,0,1-.08-.21,1,1,0,0,1,.18-.47,1.58,1.58,0,0,1,.45-.44,2.45,2.45,0,0,1,.65-.31,2.2,2.2,0,0,1,.78-.13,2.86,2.86,0,0,1,.89.14,2.1,2.1,0,0,1,.7.4,1.9,1.9,0,0,1,.46.67,2.29,2.29,0,0,1,.16.9v3.24a.28.28,0,0,1-.08.2.29.29,0,0,1-.21.09h-.39a.27.27,0,0,1-.2-.09.25.25,0,0,1-.09-.2v-.43a1,1,0,0,1-.29.35,1.78,1.78,0,0,1-.47.26,2.41,2.41,0,0,1-.54.16,2.53,2.53,0,0,1-.53.06,2.37,2.37,0,0,1-.76-.12,1.71,1.71,0,0,1-.58-.32,1.35,1.35,0,0,1-.5-1.06Zm1.95.58a1.94,1.94,0,0,0,.7-.12,1.43,1.43,0,0,0,.55-.32,1.37,1.37,0,0,0,.35-.5,1.61,1.61,0,0,0,.12-.63v-.27L140,134a3.07,3.07,0,0,0-1.06.34.69.69,0,0,0-.4.61.49.49,0,0,0,.06.23.6.6,0,0,0,.17.23.85.85,0,0,0,.3.17A1.51,1.51,0,0,0,139.56,135.63Z" style="fill:#455a64"></path><path d="M145.45,134.58a1.58,1.58,0,0,0,0,.38.81.81,0,0,0,.13.3.79.79,0,0,0,.27.2,1.47,1.47,0,0,0,.46.06h.56a.31.31,0,0,1,.29.29v.34a.25.25,0,0,1-.09.2.27.27,0,0,1-.2.09h-.67a1.68,1.68,0,0,1-1.34-.48,2,2,0,0,1-.41-1.38v-2.76h-.79a.24.24,0,0,1-.2-.08.28.28,0,0,1-.09-.2v-.34a.29.29,0,0,1,.09-.21.28.28,0,0,1,.2-.08h.79v-1.73a.28.28,0,0,1,.08-.21.3.3,0,0,1,.2-.08h.39a.27.27,0,0,1,.29.29v1.73h1.35a.28.28,0,0,1,.2.08.29.29,0,0,1,.09.21v.34a.28.28,0,0,1-.09.2.24.24,0,0,1-.2.08h-1.35Z" style="fill:#455a64"></path><path d="M149.6,129.78a.31.31,0,0,1-.29.29h-.6a.29.29,0,0,1-.21-.09.28.28,0,0,1-.08-.2v-.6a.27.27,0,0,1,.29-.29h.6a.28.28,0,0,1,.2.08.29.29,0,0,1,.09.21Zm-.11,6.37a.28.28,0,0,1-.08.2.28.28,0,0,1-.2.09h-.4a.28.28,0,0,1-.2-.09.24.24,0,0,1-.08-.2v-5a.28.28,0,0,1,.08-.21.32.32,0,0,1,.2-.08h.4a.32.32,0,0,1,.2.08.32.32,0,0,1,.08.21Z" style="fill:#455a64"></path><path d="M153.62,130.8a2.73,2.73,0,0,1,1,.18,2.35,2.35,0,0,1,.76.48,2.17,2.17,0,0,1,.51.75,3.37,3.37,0,0,1,.23,1,1.62,1.62,0,0,1,0,.23V134a1.28,1.28,0,0,1,0,.21,3.54,3.54,0,0,1-.24,1,2.15,2.15,0,0,1-.5.75,2.35,2.35,0,0,1-.76.48,3,3,0,0,1-2,0,2.4,2.4,0,0,1-.77-.48,2.29,2.29,0,0,1-.5-.75,2.94,2.94,0,0,1-.23-1s0-.13,0-.21v-.56c0-.09,0-.16,0-.23a3.07,3.07,0,0,1,.23-1,2.29,2.29,0,0,1,.5-.75,2.4,2.4,0,0,1,.77-.48A2.73,2.73,0,0,1,153.62,130.8Zm1.55,3.32a2.89,2.89,0,0,0,0-.44,3,3,0,0,0,0-.45,2.29,2.29,0,0,0-.14-.6,1.66,1.66,0,0,0-.29-.48,1.56,1.56,0,0,0-.47-.32,1.84,1.84,0,0,0-.65-.11,1.8,1.8,0,0,0-.65.11,1.56,1.56,0,0,0-.47.32,1.5,1.5,0,0,0-.3.48,2.28,2.28,0,0,0-.13.6,2.9,2.9,0,0,0,0,.45,2.76,2.76,0,0,0,0,.44,2.38,2.38,0,0,0,.13.6,1.35,1.35,0,0,0,.3.47,1.27,1.27,0,0,0,.47.32,1.6,1.6,0,0,0,.65.12,1.64,1.64,0,0,0,.65-.12,1.27,1.27,0,0,0,.47-.32,1.49,1.49,0,0,0,.29-.47A2.39,2.39,0,0,0,155.17,134.12Z" style="fill:#455a64"></path><path d="M162.67,136.15a.31.31,0,0,1-.29.29H162a.29.29,0,0,1-.21-.09.28.28,0,0,1-.08-.2v-2.81a1.7,1.7,0,0,0-.39-1.22,1.69,1.69,0,0,0-2.18,0,1.66,1.66,0,0,0-.41,1.22v2.81a.28.28,0,0,1-.08.2.28.28,0,0,1-.2.09H158a.27.27,0,0,1-.2-.09.24.24,0,0,1-.08-.2v-5a.28.28,0,0,1,.08-.21.3.3,0,0,1,.2-.08h.4a.32.32,0,0,1,.2.08.32.32,0,0,1,.08.21v.33a2,2,0,0,1,.6-.5,2.15,2.15,0,0,1,1.05-.23,2.6,2.6,0,0,1,.93.17,2,2,0,0,1,.72.47,2.06,2.06,0,0,1,.48.75,2.82,2.82,0,0,1,.17,1Z" style="fill:#455a64"></path><rect x="333.32" y="253.26" width="76.51" height="16.08" style="fill:#e0e0e0"></rect><path d="M346,264.1a.25.25,0,0,1,.2.09.27.27,0,0,1,.09.2v.38a.29.29,0,0,1-.09.21.28.28,0,0,1-.2.08H341.7a.28.28,0,0,1-.2-.08.29.29,0,0,1-.09-.21v-6.86a.29.29,0,0,1,.09-.21.28.28,0,0,1,.2-.08h4.21a.3.3,0,0,1,.2.08.28.28,0,0,1,.08.21v.38a.26.26,0,0,1-.08.2.27.27,0,0,1-.2.09h-3.49v2.24h3.25a.27.27,0,0,1,.29.29v.38a.3.3,0,0,1-.08.2.29.29,0,0,1-.21.09h-3.25v2.32Z" style="fill:#455a64"></path><path d="M349.68,265.06a.29.29,0,0,1-.21-.08.94.94,0,0,1-.12-.18l-2.11-4.94a.15.15,0,0,1,0-.07.24.24,0,0,1,.07-.18.25.25,0,0,1,.18-.08h.4a.29.29,0,0,1,.23.09.48.48,0,0,1,.12.17l1.64,3.86,1.65-3.86a.45.45,0,0,1,.11-.17.25.25,0,0,1,.2-.09h.44a.25.25,0,0,1,.18.08.24.24,0,0,1,.07.18.15.15,0,0,1,0,.07l-2.11,4.94a.94.94,0,0,1-.12.18.25.25,0,0,1-.2.08Z" style="fill:#455a64"></path><path d="M353.29,263.67a1.51,1.51,0,0,1,.17-.75,1.61,1.61,0,0,1,.47-.54,2.37,2.37,0,0,1,.69-.36,5.56,5.56,0,0,1,.85-.21l1.5-.25v-.13a1,1,0,0,0-.36-.82,1.43,1.43,0,0,0-.89-.27,1.2,1.2,0,0,0-.7.17,1.6,1.6,0,0,0-.41.41.45.45,0,0,1-.14.11.56.56,0,0,1-.2,0H354a.28.28,0,0,1-.21-.08.24.24,0,0,1-.08-.2,1,1,0,0,1,.19-.48,1.54,1.54,0,0,1,.44-.44,2.6,2.6,0,0,1,.65-.31,2.54,2.54,0,0,1,.78-.12,2.82,2.82,0,0,1,.89.13,2,2,0,0,1,.7.41,1.83,1.83,0,0,1,.46.66,2.29,2.29,0,0,1,.16.9v3.24a.28.28,0,0,1-.08.21.3.3,0,0,1-.2.08h-.4a.32.32,0,0,1-.2-.08.28.28,0,0,1-.08-.21v-.43a1.1,1.1,0,0,1-.3.35,2.32,2.32,0,0,1-.46.27,2.64,2.64,0,0,1-.55.15,2.44,2.44,0,0,1-.52.06,2.29,2.29,0,0,1-.76-.12,1.94,1.94,0,0,1-.59-.31,1.35,1.35,0,0,1-.37-.48A1.31,1.31,0,0,1,353.29,263.67Zm1.95.58a2,2,0,0,0,.71-.11,1.63,1.63,0,0,0,.54-.33,1.3,1.3,0,0,0,.35-.49,1.5,1.5,0,0,0,.13-.64v-.27l-1.26.21a2.94,2.94,0,0,0-1.06.34.68.68,0,0,0-.39.6.52.52,0,0,0,.05.24.65.65,0,0,0,.17.22.87.87,0,0,0,.3.17A1.51,1.51,0,0,0,355.24,264.25Z" style="fill:#455a64"></path><path d="M362.37,265.17a2.1,2.1,0,0,1-1.05-.23,1.81,1.81,0,0,1-.6-.5v2.36a.28.28,0,0,1-.09.2.28.28,0,0,1-.2.08H360a.28.28,0,0,1-.2-.08.28.28,0,0,1-.09-.2v-7a.31.31,0,0,1,.29-.29h.39a.31.31,0,0,1,.29.29v.33a1.86,1.86,0,0,1,.61-.51,2.21,2.21,0,0,1,1-.21,2.4,2.4,0,0,1,.93.17,2.17,2.17,0,0,1,.75.51,2.56,2.56,0,0,1,.51.79,3.22,3.22,0,0,1,.22,1.06c0,.1,0,.22,0,.34s0,.24,0,.35a3.11,3.11,0,0,1-.22,1.05,2.45,2.45,0,0,1-.51.79,2,2,0,0,1-.75.5A2.41,2.41,0,0,1,362.37,265.17Zm-1.65-3.33c0,.11,0,.25,0,.42s0,.31,0,.42a1.64,1.64,0,0,0,.45,1.16,1.48,1.48,0,0,0,1.09.41,1.45,1.45,0,0,0,1.11-.44,1.86,1.86,0,0,0,.44-1.22,5.8,5.8,0,0,0,0-.59,1.85,1.85,0,0,0-.44-1.21,1.42,1.42,0,0,0-1.11-.45,1.47,1.47,0,0,0-1.54,1.5Z" style="fill:#455a64"></path><path d="M368.64,259.43a2.73,2.73,0,0,1,1,.17,2.36,2.36,0,0,1,.77.49,2.1,2.1,0,0,1,.5.75,2.94,2.94,0,0,1,.23,1,1.55,1.55,0,0,1,0,.23v.55a1.41,1.41,0,0,1,0,.22,3.22,3.22,0,0,1-.23,1,2.29,2.29,0,0,1-.5.75,2.33,2.33,0,0,1-.77.48,3,3,0,0,1-2,0,2.22,2.22,0,0,1-1.27-1.23,3.22,3.22,0,0,1-.23-1,1.41,1.41,0,0,1,0-.22,2.53,2.53,0,0,1,0-.28,2.35,2.35,0,0,1,0-.27,1.55,1.55,0,0,1,0-.23,3.22,3.22,0,0,1,.23-1,2,2,0,0,1,.51-.75,2.21,2.21,0,0,1,.76-.49A2.73,2.73,0,0,1,368.64,259.43Zm1.55,3.31a2.82,2.82,0,0,0,0-.44,3.1,3.1,0,0,0,0-.45,2.21,2.21,0,0,0-.13-.59,1.45,1.45,0,0,0-.3-.48,1.4,1.4,0,0,0-.47-.32,1.6,1.6,0,0,0-.65-.12,1.64,1.64,0,0,0-.65.12,1.4,1.4,0,0,0-.47.32,1.43,1.43,0,0,0-.29.48,2.21,2.21,0,0,0-.14.59,3.1,3.1,0,0,0,0,.45,2.82,2.82,0,0,0,0,.44,2.29,2.29,0,0,0,.14.6,1.66,1.66,0,0,0,.29.48,1.56,1.56,0,0,0,.47.32,1.64,1.64,0,0,0,.65.11,1.61,1.61,0,0,0,.65-.11,1.56,1.56,0,0,0,.47-.32,1.69,1.69,0,0,0,.3-.48A2.28,2.28,0,0,0,370.19,262.74Z" style="fill:#455a64"></path><path d="M375.58,259.53a.29.29,0,0,1,.21.09.28.28,0,0,1,.08.2v.34a.3.3,0,0,1-.08.2.29.29,0,0,1-.21.09H375a1.08,1.08,0,0,0-1.23,1.22v3.1a.28.28,0,0,1-.08.21.3.3,0,0,1-.2.08h-.39a.27.27,0,0,1-.29-.29v-4.95a.28.28,0,0,1,.08-.2.29.29,0,0,1,.21-.09h.39a.27.27,0,0,1,.2.09.24.24,0,0,1,.08.2v.33a1.44,1.44,0,0,1,.52-.47,1.67,1.67,0,0,1,.77-.15Z" style="fill:#455a64"></path><path d="M376.58,263.67a1.63,1.63,0,0,1,.17-.75,1.73,1.73,0,0,1,.47-.54,2.43,2.43,0,0,1,.7-.36,5.43,5.43,0,0,1,.84-.21l1.5-.25v-.13a1,1,0,0,0-.35-.82,1.45,1.45,0,0,0-.89-.27,1.26,1.26,0,0,0-.71.17,1.77,1.77,0,0,0-.41.41.36.36,0,0,1-.14.11.53.53,0,0,1-.2,0h-.32a.27.27,0,0,1-.2-.08.24.24,0,0,1-.08-.2,1,1,0,0,1,.18-.48,1.58,1.58,0,0,1,.45-.44,2.59,2.59,0,0,1,1.43-.43,2.86,2.86,0,0,1,.89.13,2.12,2.12,0,0,1,.7.41,2,2,0,0,1,.46.66,2.29,2.29,0,0,1,.16.9v3.24a.27.27,0,0,1-.29.29h-.39a.28.28,0,0,1-.2-.08.29.29,0,0,1-.09-.21v-.43a1,1,0,0,1-.29.35,2.14,2.14,0,0,1-.47.27,2.39,2.39,0,0,1-.54.15,2.53,2.53,0,0,1-.53.06,2.33,2.33,0,0,1-.76-.12,1.88,1.88,0,0,1-.58-.31,1.35,1.35,0,0,1-.37-.48A1.31,1.31,0,0,1,376.58,263.67Zm2,.58a1.94,1.94,0,0,0,.7-.11,1.58,1.58,0,0,0,.55-.33,1.42,1.42,0,0,0,.35-.49,1.66,1.66,0,0,0,.12-.64v-.27l-1.25.21a3,3,0,0,0-1.07.34.68.68,0,0,0-.39.6.53.53,0,0,0,.06.24.77.77,0,0,0,.16.22.83.83,0,0,0,.31.17A1.51,1.51,0,0,0,378.54,264.25Z" style="fill:#455a64"></path><path d="M384.43,263.2a1.53,1.53,0,0,0,0,.38.64.64,0,0,0,.4.5,1.42,1.42,0,0,0,.45.07h.57a.3.3,0,0,1,.2.08.28.28,0,0,1,.09.2v.34a.29.29,0,0,1-.09.21.3.3,0,0,1-.2.08h-.67a1.67,1.67,0,0,1-1.34-.48,2,2,0,0,1-.42-1.38v-2.75h-.78a.25.25,0,0,1-.2-.09.27.27,0,0,1-.09-.2v-.34a.31.31,0,0,1,.29-.29h.78V257.8a.25.25,0,0,1,.09-.2.27.27,0,0,1,.2-.09h.39a.29.29,0,0,1,.21.09.28.28,0,0,1,.08.2v1.73h1.35a.31.31,0,0,1,.29.29v.34a.27.27,0,0,1-.09.2.25.25,0,0,1-.2.09h-1.35Z" style="fill:#455a64"></path><path d="M388.58,258.41a.28.28,0,0,1-.09.2.28.28,0,0,1-.2.08h-.6a.32.32,0,0,1-.21-.08.32.32,0,0,1-.08-.2v-.61a.28.28,0,0,1,.08-.2.29.29,0,0,1,.21-.09h.6a.31.31,0,0,1,.29.29Zm-.11,6.36a.27.27,0,0,1-.29.29h-.39a.3.3,0,0,1-.2-.08.29.29,0,0,1-.09-.21v-4.95a.25.25,0,0,1,.09-.2.27.27,0,0,1,.2-.09h.39a.29.29,0,0,1,.21.09.28.28,0,0,1,.08.2Z" style="fill:#455a64"></path><path d="M392.6,259.43a2.73,2.73,0,0,1,1,.17,2.21,2.21,0,0,1,.76.49,2,2,0,0,1,.51.75,3.22,3.22,0,0,1,.23,1,1.55,1.55,0,0,1,0,.23v.55a1.41,1.41,0,0,1,0,.22,3.56,3.56,0,0,1-.24,1,2.15,2.15,0,0,1-.5.75,2.19,2.19,0,0,1-.76.48,2.73,2.73,0,0,1-1,.18,2.69,2.69,0,0,1-1-.18,2.24,2.24,0,0,1-.77-.48,2.29,2.29,0,0,1-.5-.75,2.94,2.94,0,0,1-.23-1c0-.06,0-.13,0-.22V262c0-.09,0-.17,0-.23a2.94,2.94,0,0,1,.23-1,2.1,2.1,0,0,1,.5-.75,2.26,2.26,0,0,1,.77-.49A2.7,2.7,0,0,1,392.6,259.43Zm1.55,3.31c0-.12,0-.26,0-.44s0-.32,0-.45a2.21,2.21,0,0,0-.14-.59,1.31,1.31,0,0,0-.3-.48,1.27,1.27,0,0,0-.46-.32,1.64,1.64,0,0,0-.65-.12,1.6,1.6,0,0,0-.65.12,1.4,1.4,0,0,0-.47.32,1.31,1.31,0,0,0-.3.48,2.21,2.21,0,0,0-.13.59,3,3,0,0,0,0,.45,2.68,2.68,0,0,0,0,.44,2.28,2.28,0,0,0,.13.6,1.5,1.5,0,0,0,.3.48,1.56,1.56,0,0,0,.47.32,1.61,1.61,0,0,0,.65.11,1.64,1.64,0,0,0,.65-.11,1.4,1.4,0,0,0,.46-.32,1.5,1.5,0,0,0,.3-.48A2.29,2.29,0,0,0,394.15,262.74Z" style="fill:#455a64"></path><path d="M401.65,264.77a.29.29,0,0,1-.09.21.3.3,0,0,1-.2.08H401a.27.27,0,0,1-.29-.29V262a1.67,1.67,0,0,0-.4-1.23,1.47,1.47,0,0,0-1.09-.4,1.5,1.5,0,0,0-1.08.4,1.67,1.67,0,0,0-.41,1.23v2.8a.27.27,0,0,1-.29.29H397a.3.3,0,0,1-.2-.08.29.29,0,0,1-.09-.21v-4.95a.25.25,0,0,1,.09-.2.27.27,0,0,1,.2-.09h.39a.29.29,0,0,1,.21.09.28.28,0,0,1,.08.2v.33a2.21,2.21,0,0,1,.6-.5,2.15,2.15,0,0,1,1.05-.22,2.51,2.51,0,0,1,.92.16,2,2,0,0,1,.73.47,2.2,2.2,0,0,1,.48.75,2.87,2.87,0,0,1,.17,1Z" style="fill:#455a64"></path><rect x="91.99" y="253.26" width="76.51" height="16.08" style="fill:#e0e0e0"></rect><path d="M104.34,260.45c0,.32,0,.61,0,.89s0,.57,0,.89a2.11,2.11,0,0,0,.54,1.43,1.85,1.85,0,0,0,1.45.55,2.4,2.4,0,0,0,.86-.13,1.63,1.63,0,0,0,.58-.33,1.31,1.31,0,0,0,.35-.46,3.35,3.35,0,0,0,.19-.53.27.27,0,0,1,.1-.17.32.32,0,0,1,.17-.06h.49a.22.22,0,0,1,.17.07.26.26,0,0,1,.07.16,2.17,2.17,0,0,1-.19.77,2.27,2.27,0,0,1-.52.78,2.69,2.69,0,0,1-.92.61,3.22,3.22,0,0,1-1.35.25,3.37,3.37,0,0,1-1.23-.22,2.91,2.91,0,0,1-.94-.6,3,3,0,0,1-.6-.91,3.27,3.27,0,0,1-.23-1.15c0-.63,0-1.27,0-1.9a3.26,3.26,0,0,1,.23-1.14,2.63,2.63,0,0,1,1.54-1.52,3.37,3.37,0,0,1,1.23-.22,3.22,3.22,0,0,1,1.35.25,2.69,2.69,0,0,1,.92.61,2.27,2.27,0,0,1,.52.78,2.17,2.17,0,0,1,.19.77.26.26,0,0,1-.07.16.22.22,0,0,1-.17.07h-.49a.32.32,0,0,1-.17-.06.27.27,0,0,1-.1-.17,3.35,3.35,0,0,0-.19-.53,1.41,1.41,0,0,0-.35-.46,1.63,1.63,0,0,0-.58-.33,2.4,2.4,0,0,0-.86-.13,1.85,1.85,0,0,0-1.45.55A2.11,2.11,0,0,0,104.34,260.45Z" style="fill:#455a64"></path><path d="M113.11,259.43a2.66,2.66,0,0,1,1,.17,2.26,2.26,0,0,1,.77.49,2.1,2.1,0,0,1,.5.75,2.94,2.94,0,0,1,.23,1,1.55,1.55,0,0,1,0,.23v.55a1.41,1.41,0,0,1,0,.22,3.22,3.22,0,0,1-.23,1,2.29,2.29,0,0,1-.5.75,2.24,2.24,0,0,1-.77.48,2.66,2.66,0,0,1-1,.18,2.73,2.73,0,0,1-1-.18,2.22,2.22,0,0,1-1.27-1.23,3.22,3.22,0,0,1-.23-1c0-.06,0-.13,0-.22a2.53,2.53,0,0,1,0-.28,2.35,2.35,0,0,1,0-.27c0-.09,0-.17,0-.23a3.22,3.22,0,0,1,.23-1,2,2,0,0,1,.51-.75,2.21,2.21,0,0,1,.76-.49A2.73,2.73,0,0,1,113.11,259.43Zm1.56,3.31c0-.12,0-.26,0-.44s0-.32,0-.45a2.68,2.68,0,0,0-.14-.59,1.38,1.38,0,0,0-.77-.8,1.6,1.6,0,0,0-.65-.12,1.64,1.64,0,0,0-.65.12,1.27,1.27,0,0,0-.46.32,1.31,1.31,0,0,0-.3.48,2.21,2.21,0,0,0-.14.59c0,.13,0,.28,0,.45s0,.32,0,.44a2.29,2.29,0,0,0,.14.6,1.5,1.5,0,0,0,.3.48,1.4,1.4,0,0,0,.46.32,1.64,1.64,0,0,0,.65.11,1.61,1.61,0,0,0,.65-.11,1.45,1.45,0,0,0,.47-.32,1.5,1.5,0,0,0,.3-.48A2.77,2.77,0,0,0,114.67,262.74Z" style="fill:#455a64"></path><path d="M118.22,264.77a.29.29,0,0,1-.09.21.3.3,0,0,1-.2.08h-.39a.27.27,0,0,1-.29-.29v-7a.28.28,0,0,1,.08-.2.29.29,0,0,1,.21-.09h.39a.27.27,0,0,1,.2.09.25.25,0,0,1,.09.2Z" style="fill:#455a64"></path><path d="M121,264.77a.28.28,0,0,1-.08.21.3.3,0,0,1-.2.08h-.4a.32.32,0,0,1-.2-.08.32.32,0,0,1-.08-.21v-7a.28.28,0,0,1,.08-.2.28.28,0,0,1,.2-.09h.4a.27.27,0,0,1,.2.09.24.24,0,0,1,.08.2Z" style="fill:#455a64"></path><path d="M122.65,261.77a3,3,0,0,1,.23-.92,2.75,2.75,0,0,1,.5-.74,2.2,2.2,0,0,1,.74-.5,2.5,2.5,0,0,1,1-.18,2.73,2.73,0,0,1,1,.18,2.22,2.22,0,0,1,1.26,1.39,3.29,3.29,0,0,1,.17,1.12v.28a.27.27,0,0,1-.29.29H123.6v.06a1.5,1.5,0,0,0,.44,1.12,1.52,1.52,0,0,0,1,.38,1.79,1.79,0,0,0,.87-.16,1.69,1.69,0,0,0,.48-.37l.14-.12a.53.53,0,0,1,.2,0h.32a.32.32,0,0,1,.21.09.2.2,0,0,1,.07.2,1.07,1.07,0,0,1-.18.42,1.75,1.75,0,0,1-.43.43,2.68,2.68,0,0,1-.7.33,3.58,3.58,0,0,1-1,.13,2.25,2.25,0,0,1-1-.19,2.13,2.13,0,0,1-.74-.51,2.54,2.54,0,0,1-.51-.76,3.36,3.36,0,0,1-.23-1A3.94,3.94,0,0,1,122.65,261.77Zm.95,0h3v0a1.36,1.36,0,0,0-.4-1,1.53,1.53,0,0,0-1.09-.39,1.57,1.57,0,0,0-.58.1,1.42,1.42,0,0,0-.47.29,1.36,1.36,0,0,0-.32.45,1.59,1.59,0,0,0-.12.59Z" style="fill:#455a64"></path><path d="M129.81,262.67a2.11,2.11,0,0,0,.18.72,1.66,1.66,0,0,0,.35.49,1.34,1.34,0,0,0,.47.28,1.54,1.54,0,0,0,.52.09,1.8,1.8,0,0,0,.87-.19,1.27,1.27,0,0,0,.56-.64.45.45,0,0,1,.16-.22.29.29,0,0,1,.19-.06h.32a.32.32,0,0,1,.21.08.24.24,0,0,1,.08.2,1.32,1.32,0,0,1-.17.56,2,2,0,0,1-.45.57,2.7,2.7,0,0,1-.75.44,2.66,2.66,0,0,1-1,.18,2.79,2.79,0,0,1-1-.19,2.33,2.33,0,0,1-.77-.52,2.38,2.38,0,0,1-.48-.78,2.79,2.79,0,0,1-.2-1c0-.11,0-.25,0-.42a2.82,2.82,0,0,1,0-.43,3.22,3.22,0,0,1,.22-.95,2.22,2.22,0,0,1,.48-.78,2.28,2.28,0,0,1,.76-.52,2.53,2.53,0,0,1,1-.19,2.66,2.66,0,0,1,1,.18,2.48,2.48,0,0,1,.75.44,1.79,1.79,0,0,1,.45.56,1.32,1.32,0,0,1,.17.56.22.22,0,0,1-.08.2.29.29,0,0,1-.21.09h-.32a.29.29,0,0,1-.19-.06.54.54,0,0,1-.16-.23,1.27,1.27,0,0,0-.56-.64,1.8,1.8,0,0,0-.87-.19,1.6,1.6,0,0,0-.53.09,1.5,1.5,0,0,0-.47.28,1.66,1.66,0,0,0-.35.49,2.12,2.12,0,0,0-.17.73A3.05,3.05,0,0,0,129.81,262.67Z" style="fill:#455a64"></path><path d="M136.71,263.2a2.25,2.25,0,0,0,0,.38.7.7,0,0,0,.14.3.57.57,0,0,0,.27.2,1.42,1.42,0,0,0,.45.07h.56a.32.32,0,0,1,.21.08.32.32,0,0,1,.08.2v.34a.27.27,0,0,1-.29.29h-.67a1.7,1.7,0,0,1-1.34-.48,2.08,2.08,0,0,1-.41-1.38v-2.75H135a.27.27,0,0,1-.2-.09.26.26,0,0,1-.08-.2v-.34a.24.24,0,0,1,.08-.2.27.27,0,0,1,.2-.09h.79V257.8a.28.28,0,0,1,.08-.2.29.29,0,0,1,.21-.09h.39a.31.31,0,0,1,.29.29v1.73h1.35a.27.27,0,0,1,.2.09.24.24,0,0,1,.08.2v.34a.26.26,0,0,1-.08.2.27.27,0,0,1-.2.09h-1.35Z" style="fill:#455a64"></path><path d="M140.85,258.41a.27.27,0,0,1-.28.28H140a.3.3,0,0,1-.2-.08.28.28,0,0,1-.09-.2v-.61a.25.25,0,0,1,.09-.2.27.27,0,0,1,.2-.09h.61a.28.28,0,0,1,.2.09.28.28,0,0,1,.08.2Zm-.1,6.36a.29.29,0,0,1-.09.21.28.28,0,0,1-.2.08h-.39a.27.27,0,0,1-.29-.29v-4.95a.28.28,0,0,1,.08-.2.29.29,0,0,1,.21-.09h.39a.31.31,0,0,1,.29.29Z" style="fill:#455a64"></path><path d="M144.87,259.43a2.66,2.66,0,0,1,1,.17,2.26,2.26,0,0,1,.77.49,2.1,2.1,0,0,1,.5.75,2.94,2.94,0,0,1,.23,1,1.55,1.55,0,0,1,0,.23v.55a1.41,1.41,0,0,1,0,.22,3.22,3.22,0,0,1-.23,1,2.29,2.29,0,0,1-.5.75,2.24,2.24,0,0,1-.77.48,2.66,2.66,0,0,1-1,.18,2.73,2.73,0,0,1-1-.18,2.29,2.29,0,0,1-.76-.48,2.32,2.32,0,0,1-.51-.75,3.22,3.22,0,0,1-.23-1c0-.06,0-.13,0-.22a2.53,2.53,0,0,1,0-.28,2.35,2.35,0,0,1,0-.27c0-.09,0-.17,0-.23a3.22,3.22,0,0,1,.23-1,2.12,2.12,0,0,1,.51-.75,2.31,2.31,0,0,1,.76-.49A2.73,2.73,0,0,1,144.87,259.43Zm1.56,3.31c0-.12,0-.26,0-.44s0-.32,0-.45a2.68,2.68,0,0,0-.14-.59,1.38,1.38,0,0,0-.77-.8,1.6,1.6,0,0,0-.65-.12,1.59,1.59,0,0,0-.64.12,1.23,1.23,0,0,0-.47.32,1.31,1.31,0,0,0-.3.48,2.21,2.21,0,0,0-.14.59c0,.13,0,.28,0,.45s0,.32,0,.44a2.29,2.29,0,0,0,.14.6,1.5,1.5,0,0,0,.3.48,1.35,1.35,0,0,0,.47.32,1.59,1.59,0,0,0,.64.11,1.61,1.61,0,0,0,.65-.11,1.45,1.45,0,0,0,.47-.32,1.5,1.5,0,0,0,.3-.48A2.77,2.77,0,0,0,146.43,262.74Z" style="fill:#455a64"></path><path d="M153.92,264.77a.27.27,0,0,1-.29.29h-.39a.3.3,0,0,1-.2-.08.29.29,0,0,1-.09-.21V262a1.71,1.71,0,0,0-.39-1.23,1.67,1.67,0,0,0-2.17,0A1.63,1.63,0,0,0,150,262v2.8a.29.29,0,0,1-.09.21.3.3,0,0,1-.2.08h-.39a.27.27,0,0,1-.29-.29v-4.95a.28.28,0,0,1,.08-.2.29.29,0,0,1,.21-.09h.39a.27.27,0,0,1,.2.09.25.25,0,0,1,.09.2v.33a1.94,1.94,0,0,1,.6-.5,2.09,2.09,0,0,1,1-.22,2.52,2.52,0,0,1,.93.16,2.13,2.13,0,0,1,.73.47,2,2,0,0,1,.47.75,2.87,2.87,0,0,1,.17,1Z" style="fill:#455a64"></path></g></g></svg>
